<svg viewBox="0 0 248 49" fill="none" xmlns="http://www.w3.org/2000/svg"><g clip-path="url(#a)"><path d="M17.443 21.068c-1.49 1.4-2.896 2.338-4.988 2.338-3.172 0-5.48-2.51-5.48-5.956v-.067c0-3.32 2.308-5.866 5.212-5.866 2.233 0 3.595.945 4.958 2.412l.208.245L21.716 9.5l-.179-.208c-2.457-2.732-5.315-3.916-9.328-3.916a12.068 12.068 0 0 0-8.755 3.558A11.911 11.911 0 0 0 0 17.443v.067a11.866 11.866 0 0 0 3.454 8.479 12.075 12.075 0 0 0 8.688 3.521 11.598 11.598 0 0 0 9.484-4.199l.18-.208-4.192-4.258-.171.223ZM78.703 0h-6.975v5.792H68.9v5.717h2.83v10.884c0 4.854 2.091 7.117 6.833 7.117a9.85 9.85 0 0 0 5.271-1.355l.171-.074v-5.688l-.454.246a6.06 6.06 0 0 1-3.037.744c-1.251 0-1.772-.558-1.772-1.913v-9.96h5.33V5.791h-5.367V0Zm18.94 5.375a12.842 12.842 0 0 0-9.053 3.558 11.792 11.792 0 0 0-3.596 8.547v.067a11.779 11.779 0 0 0 3.596 8.509 12.73 12.73 0 0 0 8.933 3.484 12.908 12.908 0 0 0 9.038-3.521 11.711 11.711 0 0 0 3.618-8.576v-.067a11.734 11.734 0 0 0-3.558-8.517 12.82 12.82 0 0 0-8.978-3.484Zm5.583 12.135c0 3.454-2.3 5.866-5.583 5.866-3.283 0-5.68-2.546-5.68-5.956v-.067c0-3.454 2.3-5.859 5.575-5.859a5.68 5.68 0 0 1 5.688 5.956v.06Zm15.946-8.19V5.793h-6.946v23.242h6.946V20.1c0-5.025 2.234-7.675 6.589-7.675h.632v-7.05h-.282a6.97 6.97 0 0 0-6.939 3.938v.008Zm62.534-3.938a9.679 9.679 0 0 0-7.4 3.35c-1.287-2.166-3.588-3.35-6.454-3.35a8.063 8.063 0 0 0-6.38 3.105V5.792h-6.946v23.242h6.946v-13.23c0-2.754 1.288-4.295 3.596-4.295 2.859 0 3.521 2.338 3.521 4.296v13.229h6.938v-13.23c0-2.754 1.326-4.295 3.633-4.295 2.859 0 3.484 2.338 3.484 4.296v13.229h6.946V13.988c.015-5.479-2.814-8.613-7.869-8.613l-.015.007ZM39.315 8.51a8.345 8.345 0 0 0-6.485-3.134c-5.866 0-10.995 5.442-10.995 12.068v.067c0 6.558 4.995 12 10.995 12a8.294 8.294 0 0 0 6.485-3.208v2.687h6.975V5.792h-6.975v2.717Zm.282 9c0 3.455-2.233 5.867-5.374 5.867-3.142 0-5.442-2.546-5.442-5.956v-.067c0-3.454 2.233-5.859 5.375-5.859 3.141 0 5.441 2.546 5.441 5.956v.06Zm105.006-9a8.367 8.367 0 0 0-6.492-3.134c-5.859 0-10.988 5.442-10.988 12.068v.067c0 6.558 4.958 12 10.988 12a8.308 8.308 0 0 0 6.492-3.208v2.687h6.938V5.792h-6.938v2.717Zm.275 9c0 3.455-2.233 5.867-5.367 5.867s-5.442-2.546-5.442-5.956v-.067c0-3.454 2.196-5.859 5.367-5.859 3.172 0 5.442 2.546 5.442 5.956v.06Zm63.949-11.717v2.717a8.367 8.367 0 0 0-6.492-3.134c-5.859 0-10.988 5.442-10.988 12.068v.067c0 6.558 4.988 12 10.988 12a8.308 8.308 0 0 0 6.492-3.208v2.687h6.938V5.792h-6.938Zm.275 11.718c0 3.454-2.196 5.866-5.367 5.866-3.172 0-5.442-2.546-5.442-5.956v-.067c0-3.454 2.196-5.859 5.367-5.859 3.172 0 5.442 2.546 5.442 5.956v.06ZM55.834 12.7c0-.975 1.05-1.19 2.1-1.19 3.17 0 6.17 2.024 6.17 2.024l2.897-5.3-.246-.142a16.043 16.043 0 0 0-8.688-2.687c-3.208 0-9.171 1.92-9.171 7.191 0 8.19 12.067 6.7 12.067 9.73 0 .908-1.146 1.117-2.441 1.117-3.805 0-7.08-2.546-7.08-2.546l-3.313 4.95.26.209a16.229 16.229 0 0 0 10.013 3.521c5.68 0 9.552-3.722 9.552-7.258-.03-7.772-12.12-6.864-12.12-9.619Z" fill="#0078D7"/><path d="M242.037 11.815a5.956 5.956 0 1 1 0 11.859h-13.884a5.954 5.954 0 0 1-6.512-5.93 5.957 5.957 0 0 1 6.512-5.93h13.884Z" fill="#FFDC00"/><path d="M34.066 41.92a3.72 3.72 0 0 1 3.767-3.878 3.26 3.26 0 0 1 2.762 1.288l-.782.692a2.234 2.234 0 0 0-1.92-.953 2.62 2.62 0 0 0-2.62 2.851 2.628 2.628 0 0 0 2.62 2.866 2.279 2.279 0 0 0 1.92-.96l.782.7a3.26 3.26 0 0 1-2.762 1.288 3.722 3.722 0 0 1-3.767-3.894ZM47.37 45.635v-4.846c0-1.318-.693-1.72-1.72-1.72-.916 0-2.233.648-2.233 2.851v3.722h-1.17V35.406h1.17V39.3a3.724 3.724 0 0 1 2.74-1.258c1.563 0 2.404.744 2.404 2.397v5.21l-1.191-.014ZM57.718 38.228v7.407h-1.14v-1.094a2.881 2.881 0 0 1-2.39 1.273 3.676 3.676 0 0 1-3.721-3.894 3.671 3.671 0 0 1 3.722-3.878 2.912 2.912 0 0 1 2.39 1.288v-1.102h1.139ZM56.66 41.95c0-1.489-.893-2.851-2.5-2.851-1.609 0-2.502 1.347-2.502 2.851s.893 2.866 2.501 2.866c1.608 0 2.501-1.377 2.501-2.896v.03ZM65.162 45.635V40.79c0-1.318-.685-1.72-1.712-1.72-1.028 0-2.233.648-2.233 2.851v3.722h-1.17v-7.414h1.162V39.3a3.721 3.721 0 0 1 2.717-1.258c1.564 0 2.39.744 2.39 2.397v5.21l-1.154-.014ZM75.495 38.228v7.407c0 2.233-1.809 2.978-3.618 2.978a3.909 3.909 0 0 1-3.052-1.117l.647-.908a2.851 2.851 0 0 0 2.405 1.057c1.228 0 2.457-.506 2.457-1.973v-1.131a2.89 2.89 0 0 1-2.397 1.273 3.672 3.672 0 0 1-3.723-3.894 3.662 3.662 0 0 1 3.723-3.878 2.918 2.918 0 0 1 2.397 1.288v-1.102h1.161Zm-1.057 3.722c0-1.489-.886-2.851-2.501-2.851-1.616 0-2.494 1.347-2.494 2.851s.886 2.866 2.494 2.866 2.508-1.377 2.508-2.896l-.007.03ZM77.423 41.92a3.724 3.724 0 0 1 3.722-3.878c2.286 0 3.633 1.75 3.633 3.975v.29h-6.104a2.56 2.56 0 0 0 2.702 2.48 3.157 3.157 0 0 0 2.278-.946l.633.826a4.199 4.199 0 0 1-2.978 1.147 3.722 3.722 0 0 1-3.886-3.894Zm6.194-.476a2.36 2.36 0 0 0-2.472-2.375 2.427 2.427 0 0 0-2.471 2.375h4.943ZM90.518 39.315h-.476c-.916 0-2.234.431-2.234 2.635v3.722h-1.161v-7.444h1.161V39.3a3.722 3.722 0 0 1 2.718-1.258l-.008 1.273ZM101.112 45.635V40.79c0-1.318-.693-1.72-1.72-1.72-.916 0-2.233.648-2.233 2.851v3.722h-1.162v-7.414h1.162V39.3a3.722 3.722 0 0 1 2.717-1.258c1.563 0 2.39.744 2.39 2.397v5.21l-1.154-.014ZM104.142 41.92a3.743 3.743 0 0 1 3.741-3.74 3.742 3.742 0 1 1-3.741 3.74Zm6.238 0c0-1.489-.886-2.851-2.494-2.851s-2.501 1.347-2.501 2.851.893 2.866 2.501 2.866c1.608 0 2.494-1.347 2.494-2.866ZM113.507 42.799v-4.571h1.139v4.533a1.982 1.982 0 0 0 1.984 2.11 1.99 1.99 0 0 0 1.869-1.312c.093-.255.132-.527.115-.798v-4.466h1.169v4.57a3.16 3.16 0 0 1-3.153 3.004 3.156 3.156 0 0 1-3.153-3.003l.03-.067ZM121.51 44.667l.58-.826a3.484 3.484 0 0 0 2.502 1.057c1.146 0 1.794-.536 1.794-1.273 0-1.794-4.675-.692-4.675-3.44 0-1.16.997-2.129 2.806-2.129a3.801 3.801 0 0 1 2.785 1.058l-.551.796a2.89 2.89 0 0 0-2.234-.93c-1.042 0-1.689.506-1.689 1.16 0 1.616 4.675.552 4.675 3.44 0 1.236-1.013 2.234-2.978 2.234a4.093 4.093 0 0 1-3.015-1.147ZM132.58 38.228h1.258a2.846 2.846 0 0 1 3.127-2.978v1.027a1.847 1.847 0 0 0-1.951 1.98h1.966v1.013h-1.981v6.365h-1.176V39.24h-1.258l.015-1.012ZM145.437 38.228v7.407h-1.162v-1.094a2.875 2.875 0 0 1-2.39 1.273 3.673 3.673 0 0 1-2.709-1.136 3.693 3.693 0 0 1-.794-1.273 3.695 3.695 0 0 1-.219-1.485 3.68 3.68 0 0 1 1.016-2.75 3.675 3.675 0 0 1 2.706-1.128 2.917 2.917 0 0 1 2.39 1.288v-1.102h1.162Zm-1.058 3.722c0-1.489-.885-2.851-2.494-2.851-1.608 0-2.501 1.347-2.501 2.851s.886 2.866 2.501 2.866c1.616 0 2.494-1.377 2.494-2.896v.03ZM148.459 35.622a.746.746 0 0 1 .744.707.682.682 0 0 1-.225.502.707.707 0 0 1-.519.183.683.683 0 0 1-.692-.685.704.704 0 0 1 .199-.497.706.706 0 0 1 .493-.21Zm-.581 10.013v-7.407h1.162v7.407h-1.162ZM153.104 42.784a1.845 1.845 0 0 0 1.167 1.882c.247.095.512.137.776.12v1.028a2.84 2.84 0 0 1-2.915-1.782 2.858 2.858 0 0 1-.196-1.196V39.24h-1.318v-1.012h1.318v-2.025h1.168v2.025h1.943v1.012h-1.943v3.544ZM167.554 38.228v7.407h-1.161v-1.094a2.883 2.883 0 0 1-2.39 1.273 3.678 3.678 0 0 1-3.722-3.894 3.663 3.663 0 0 1 1.016-2.75 3.665 3.665 0 0 1 2.706-1.128 2.91 2.91 0 0 1 2.39 1.288v-1.102h1.161Zm-1.057 3.722c0-1.489-.886-2.851-2.494-2.851s-2.501 1.347-2.501 2.851.893 2.866 2.501 2.866c1.608 0 2.494-1.377 2.494-2.896v.03ZM171.909 45.635l-3.141-7.407h1.288l2.501 6.067 2.509-6.067h1.273l-3.142 7.407h-1.288ZM184.401 38.228v7.407h-1.161v-1.094a2.883 2.883 0 0 1-2.39 1.273 3.678 3.678 0 0 1-3.722-3.894 3.68 3.68 0 0 1 1.016-2.75 3.665 3.665 0 0 1 2.706-1.128 2.91 2.91 0 0 1 2.39 1.288v-1.102h1.161Zm-1.057 3.722c0-1.489-.886-2.851-2.494-2.851s-2.501 1.347-2.501 2.851.886 2.866 2.501 2.866c1.616 0 2.494-1.377 2.494-2.896v.03ZM191.853 45.635V40.79c0-1.318-.692-1.72-1.719-1.72-1.028 0-2.234.648-2.234 2.851v3.722h-1.169v-7.414h1.169V39.3a3.725 3.725 0 0 1 2.68-1.258c1.564 0 2.39.744 2.39 2.397v5.21l-1.117-.014ZM194.891 41.92a3.723 3.723 0 0 1 3.767-3.879 3.259 3.259 0 0 1 2.762 1.289l-.782.692a2.236 2.236 0 0 0-1.921-.953 2.621 2.621 0 0 0-2.62 2.851c-.033.364.01.731.126 1.077a2.63 2.63 0 0 0 2.494 1.789 2.279 2.279 0 0 0 1.921-.96l.782.7a3.26 3.26 0 0 1-2.762 1.288 3.718 3.718 0 0 1-3.531-2.406 3.717 3.717 0 0 1-.236-1.488ZM202.64 41.92a3.717 3.717 0 0 1 1.034-2.733 3.724 3.724 0 0 1 2.689-1.145c2.285 0 3.633 1.75 3.633 3.975v.29h-6.105a2.559 2.559 0 0 0 2.702 2.48 3.192 3.192 0 0 0 2.286-.946l.625.826a4.199 4.199 0 0 1-2.978 1.147 3.723 3.723 0 0 1-3.886-3.894Zm6.194-.476a2.351 2.351 0 0 0-.727-1.722 2.355 2.355 0 0 0-1.752-.653 2.425 2.425 0 0 0-2.471 2.375h4.95ZM215.765 39.315h-.476c-.916 0-2.234.431-2.234 2.635v3.722h-1.168v-7.444h1.168V39.3a3.731 3.731 0 0 1 2.71-1.258v1.273Z" fill="#58585A"/></g><defs><clipPath id="a"><path fill="#fff" d="M0 0h248v48.635H0z"/></clipPath></defs></svg>