<?xml version="1.0" standalone="no"?>
<!DOCTYPE svg PUBLIC "-//W3C//DTD SVG 20010904//EN"
 "http://www.w3.org/TR/2001/REC-SVG-20010904/DTD/svg10.dtd">
<svg version="1.0" xmlns="http://www.w3.org/2000/svg"
 width="720.000000pt" height="720.000000pt" viewBox="0 0 720.000000 720.000000"
 preserveAspectRatio="xMidYMid meet">

<g transform="translate(0.000000,720.000000) scale(0.100000,-0.100000)"
fill="#000000" stroke="none">
<path d="M2948 5531 c-20 -4 -44 -13 -52 -21 -25 -20 -20 -68 9 -94 14 -13 25
-27 25 -32 0 -4 -19 10 -42 32 -68 63 -74 67 -161 76 -45 5 -100 12 -122 14
-34 5 -44 2 -65 -21 -21 -22 -25 -38 -28 -98 -5 -88 7 -103 92 -117 32 -5 82
-21 113 -35 77 -35 188 -119 214 -162 22 -36 22 -37 3 -50 -318 -222 -427
-348 -470 -541 -18 -79 -18 -79 -151 -203 -160 -149 -282 -549 -231 -759 6
-25 12 -101 13 -170 2 -124 8 -153 43 -193 12 -13 16 -41 17 -105 0 -79 4 -94
37 -164 20 -43 51 -98 68 -123 17 -25 29 -49 25 -54 -3 -5 -22 -15 -43 -22
-43 -14 -62 -27 -62 -43 0 -6 5 -3 11 6 6 10 28 21 52 25 37 6 87 40 87 60 0
5 -16 33 -36 63 -49 76 -100 178 -114 229 -13 49 -5 101 16 101 8 0 14 -2 14
-5 0 -3 7 -41 16 -83 19 -94 102 -274 124 -270 8 2 16 12 19 23 4 25 70 91 96
98 16 4 14 5 -7 6 -15 0 -29 -3 -33 -8 -11 -19 -85 -72 -85 -62 0 6 10 19 21
29 40 32 88 82 80 82 -5 0 -14 -7 -21 -15 -23 -28 -99 -75 -93 -58 4 11 2 14
-5 9 -20 -12 -13 5 16 40 15 18 38 48 51 65 24 31 24 32 2 20 -12 -7 -26 -24
-32 -38 -5 -14 -19 -33 -32 -43 -31 -26 -44 -1 -20 37 l17 28 -21 -18 c-20
-17 -21 -17 -31 10 -6 15 -14 57 -17 93 l-7 66 40 40 c28 28 42 52 47 79 19
122 23 126 175 157 137 28 219 68 287 142 75 81 86 88 157 96 l61 7 -53 2
c-66 1 -81 -6 -164 -85 -84 -81 -161 -118 -293 -140 -55 -9 -113 -23 -128 -31
-34 -17 -57 -67 -57 -125 0 -68 -60 -146 -93 -120 -7 5 -24 12 -38 16 -40 9
-59 59 -59 151 0 43 -7 121 -17 174 -30 176 7 372 108 573 23 46 55 102 71
124 31 44 124 123 219 186 31 21 73 58 94 83 81 100 173 99 211 0 15 -40 16
-54 5 -103 -26 -123 -27 -119 14 -154 20 -18 45 -47 56 -64 23 -38 25 -116 5
-166 -9 -20 -12 -50 -9 -74 4 -31 -1 -52 -22 -93 -17 -35 -24 -62 -21 -77 8
-32 -4 -30 -37 4 -32 33 -34 57 -7 97 21 32 26 60 11 69 -5 4 -7 -2 -4 -12 2
-11 -7 -36 -21 -57 -33 -48 -33 -54 4 -100 17 -21 28 -41 25 -44 -11 -10 -57
47 -65 80 -7 29 -8 30 -9 8 -1 -14 10 -40 24 -59 14 -19 25 -38 25 -44 0 -19
-51 39 -59 68 -6 19 -10 24 -10 12 -1 -11 10 -39 24 -63 14 -23 21 -43 16 -43
-10 0 -44 44 -54 70 -4 10 -6 9 -6 -6 -1 -12 8 -33 20 -48 11 -14 19 -31 17
-36 -2 -6 -16 8 -31 32 -32 49 -36 35 -7 -22 11 -22 16 -40 10 -40 -5 0 -10 5
-10 11 0 6 -9 23 -19 38 -10 14 -21 37 -24 51 l-4 25 -2 -26 c0 -15 8 -46 18
-70 11 -24 18 -46 15 -48 -8 -8 -39 42 -51 83 -8 31 -12 35 -12 16 0 -14 8
-45 19 -69 11 -24 19 -46 16 -48 -7 -7 -46 49 -46 68 0 10 -4 20 -9 23 -11 7
2 -52 18 -83 20 -37 4 -37 -19 0 -18 28 -20 29 -15 9 4 -14 13 -31 19 -39 9
-11 8 -13 -4 -9 -8 2 -22 25 -31 51 -8 26 -19 50 -22 54 -7 6 13 -64 28 -101
14 -33 -15 -7 -31 28 -14 28 -14 28 -10 4 3 -14 8 -33 12 -41 3 -10 -2 -14
-17 -13 -15 1 -26 10 -31 26 -6 20 -7 19 -3 -7 2 -18 0 -33 -5 -33 -6 0 -10 6
-10 14 0 8 -4 17 -9 20 -5 4 -7 -4 -4 -16 5 -23 5 -23 -10 -3 -16 19 -16 19
-10 -5 5 -24 5 -25 -11 -5 -13 16 -15 17 -10 3 9 -26 -5 -22 -17 5 -9 20 -9
20 -4 -5 4 -23 2 -26 -20 -24 -13 2 -22 0 -20 -4 3 -4 -6 -15 -19 -23 -47 -31
-67 -80 -69 -166 -1 -51 -7 -85 -15 -93 -11 -11 -13 -10 -11 2 1 8 -10 40 -24
70 -16 33 -24 63 -21 77 4 14 2 23 -5 23 -24 0 -12 -76 18 -116 26 -34 28 -41
15 -55 -12 -14 -11 -15 8 -14 30 2 48 38 48 98 0 102 55 157 175 178 128 21
220 64 319 148 82 69 111 81 230 90 115 10 148 23 216 86 37 33 56 43 96 48
64 9 143 62 180 121 16 25 37 48 46 51 35 12 76 73 88 132 7 32 23 74 37 93
l25 35 -31 -32 c-17 -18 -37 -56 -46 -87 -17 -57 -48 -106 -68 -106 -6 0 -2 7
10 15 22 15 37 51 47 116 4 21 16 50 27 65 15 21 12 19 -10 -5 -16 -19 -33
-48 -36 -65 -9 -47 -26 -86 -37 -86 -7 0 -6 5 0 13 7 7 16 36 22 64 7 33 24
66 47 94 37 44 37 44 4 14 -34 -31 -71 -93 -71 -120 0 -8 -4 -15 -9 -15 -15 0
5 59 39 115 28 46 28 48 4 20 -14 -16 -34 -48 -44 -70 -10 -22 -19 -33 -19
-25 -1 20 36 99 57 125 l17 20 -24 -20 c-13 -11 -34 -42 -47 -70 -13 -27 -24
-42 -24 -32 0 17 23 66 56 117 12 19 10 18 -10 -5 -15 -16 -36 -46 -47 -65
-15 -27 -18 -29 -13 -10 3 14 17 43 31 65 l26 40 -27 -24 c-14 -14 -26 -19
-26 -13 0 6 4 14 10 17 5 3 14 14 20 25 12 22 -8 22 -34 1 -9 -7 -16 -9 -16
-4 0 14 120 137 127 129 3 -3 11 -2 17 4 8 6 12 2 13 -13 2 -15 0 -18 -6 -9
-6 11 -10 10 -15 -4 -5 -14 -9 -15 -15 -5 -6 10 -10 9 -14 -4 -4 -9 -3 -13 2
-10 5 3 12 -4 16 -15 6 -19 8 -18 28 11 27 40 37 44 62 23 11 -8 15 -13 9 -10
-15 7 -47 -29 -41 -46 4 -9 6 -8 6 3 1 9 8 22 16 29 19 16 19 7 0 -30 -21 -41
-11 -38 14 5 28 47 46 45 19 -2 l-21 -38 33 35 c28 31 30 32 15 7 -9 -16 -14
-34 -11 -40 2 -7 5 -6 5 4 1 14 51 70 51 56 0 -3 -11 -23 -25 -43 -14 -20 -25
-42 -25 -48 1 -6 10 6 21 26 16 32 45 58 63 58 3 0 -8 -21 -24 -47 -40 -63
-38 -77 3 -17 17 26 39 50 47 52 13 4 12 2 -1 -14 -9 -10 -22 -30 -29 -44 -9
-20 -6 -18 15 8 15 17 36 37 48 44 18 9 18 7 -6 -21 -37 -45 -34 -60 4 -17 17
20 34 35 37 34 4 -1 18 4 32 12 24 13 24 12 10 -5 -8 -10 -14 -21 -13 -24 6
-13 -20 -72 -35 -82 -12 -7 -13 -9 -2 -6 8 2 27 26 43 53 30 52 75 104 89 104
12 0 89 52 84 57 -2 2 -29 -10 -60 -27 -30 -17 -60 -29 -66 -25 -16 10 -2 25
18 19 13 -5 14 -4 3 4 -11 8 -10 12 5 22 18 11 18 11 -1 5 -11 -4 -29 -10 -40
-13 -20 -5 -20 -5 -1 16 11 12 17 24 14 27 -3 3 -11 -1 -18 -10 -18 -21 -33
-19 -21 4 6 10 7 21 3 25 -3 4 0 11 8 16 11 7 11 10 2 10 -7 0 -18 -12 -24
-27 l-12 -28 -3 25 c-2 14 -8 34 -13 45 -5 11 -11 29 -14 40 -3 11 -3 -5 0
-35 l5 -55 -20 33 c-12 18 -21 47 -21 65 -1 28 -2 29 -11 14 -11 -18 -8 -49 7
-92 6 -18 4 -17 -10 2 -9 13 -21 42 -26 65 l-9 43 2 -47 c1 -27 1 -48 0 -48
-8 0 -26 49 -34 89 -8 43 -8 41 -4 -18 4 -73 -6 -67 -31 17 -8 28 -18 52 -20
52 -8 0 7 -92 18 -115 10 -19 9 -19 -7 -3 -10 9 -26 40 -36 70 -10 29 -18 43
-19 32 0 -12 7 -41 15 -64 8 -24 14 -45 12 -47 -6 -5 -59 78 -67 106 -6 17 -9
20 -9 8 -1 -20 33 -91 57 -122 9 -11 -1 -4 -22 15 -21 19 -47 53 -58 75 -17
35 -19 36 -13 10 3 -16 20 -50 37 -75 28 -40 29 -43 7 -25 -13 10 -37 33 -52
50 -37 39 -24 12 22 -45 l36 -45 -32 23 c-17 12 -43 36 -57 52 -40 49 -41 34
0 -21 45 -61 19 -54 -39 11 -21 22 -37 37 -37 32 0 -11 28 -51 59 -86 26 -29
26 -29 2 -16 -13 7 -44 31 -69 54 -26 24 -41 32 -34 20 6 -11 29 -37 52 -57
22 -21 37 -37 34 -37 -15 0 -53 26 -93 64 -24 23 -39 32 -33 20 6 -11 32 -40
57 -63 35 -32 41 -41 23 -36 -24 8 -88 52 -100 69 -4 6 -10 8 -13 4 -7 -7 67
-68 110 -91 17 -9 25 -16 19 -17 -21 0 -95 30 -127 52 l-32 22 19 -22 c11 -12
47 -36 80 -53 l61 -31 -54 6 c-31 3 -72 17 -100 32 -25 15 -40 21 -34 13 11
-14 50 -35 143 -78 21 -10 16 -11 -38 -7 -37 2 -79 13 -103 25 -22 12 -38 17
-34 11 10 -17 84 -51 128 -60 40 -7 39 -8 -23 -9 -47 -1 -77 5 -103 18 -21 11
-33 14 -28 7 12 -14 67 -39 121 -54 34 -10 34 -10 -20 -11 -30 0 -73 6 -95 14
-21 8 -41 12 -43 10 -8 -8 70 -35 121 -42 l52 -7 -40 -8 c-22 -4 -62 -5 -90
-3 -47 4 -48 4 -16 -6 19 -6 63 -9 98 -7 35 2 63 0 63 -4 0 -13 -65 -28 -129
-29 l-66 -1 49 -9 c27 -4 69 -4 93 0 23 5 43 5 43 1 0 -13 -31 -22 -100 -31
l-65 -8 78 3 c91 4 89 -7 -5 -35 -63 -19 -63 -19 -14 -13 27 3 56 8 65 11 12
3 11 1 -3 -11 -11 -9 -36 -18 -55 -22 -67 -11 -90 -24 -31 -18 30 4 66 11 79
16 38 14 34 3 -8 -20 -21 -12 -63 -26 -92 -32 l-54 -9 63 4 c34 3 76 12 92 20
17 9 30 12 30 7 0 -14 -83 -56 -125 -63 l-40 -6 40 -2 c22 0 60 8 84 19 24 11
46 18 48 16 9 -9 -79 -59 -115 -67 l-37 -7 33 -1 c18 0 50 8 72 19 47 24 68
27 51 6 -16 -19 -73 -45 -124 -56 -41 -9 -41 -9 12 -5 30 2 71 13 93 23 21 11
38 16 38 11 0 -17 -55 -44 -104 -50 l-51 -6 55 -2 c39 -1 64 5 88 19 36 22 42
24 42 12 0 -11 -41 -34 -75 -43 -27 -6 -28 -7 -5 -8 14 0 38 6 54 14 53 28 38
8 -18 -24 -31 -17 -70 -31 -89 -31 -35 0 -63 -16 -112 -61 -40 -37 -95 -59
-147 -59 l-43 1 75 39 c41 22 86 52 100 66 l25 27 -35 -25 c-19 -14 -48 -32
-65 -41 -38 -19 -215 -77 -235 -77 -8 0 14 11 50 23 62 21 205 106 195 116 -3
2 -13 -3 -23 -12 -20 -18 -134 -72 -172 -81 -14 -4 -2 4 25 17 46 22 175 113
175 123 0 3 -19 -8 -42 -24 -24 -16 -59 -37 -78 -46 l-35 -17 34 28 c86 70 86
75 2 21 -25 -15 -50 -28 -55 -28 -6 0 5 11 25 23 51 31 141 109 134 115 -3 3
-18 -6 -33 -19 -54 -50 -152 -98 -152 -75 0 6 15 17 33 24 19 7 51 28 73 48
30 27 32 30 8 14 -36 -25 -105 -50 -117 -43 -5 3 13 13 40 22 55 19 93 46 125
88 l22 28 -25 -21 c-28 -25 -81 -53 -121 -65 -40 -11 -35 7 5 20 18 6 49 24
68 40 l34 30 -52 -26 c-29 -14 -58 -23 -65 -20 -7 2 2 11 22 19 47 21 120 75
120 90 0 6 -10 2 -23 -10 -25 -24 -87 -52 -114 -52 -10 0 1 9 23 21 23 11 50
29 60 41 l19 20 -35 -20 c-43 -24 -90 -36 -90 -22 0 5 5 10 11 10 17 0 81 41
75 48 -3 2 -12 0 -20 -7 -19 -16 -76 -32 -76 -21 0 5 13 11 28 15 16 3 46 25
68 47 32 35 34 37 7 16 -30 -24 -120 -54 -130 -44 -3 3 12 12 32 20 21 9 53
29 71 46 19 16 43 30 52 30 10 0 27 7 38 16 18 15 18 15 -3 5 -12 -6 -33 -11
-46 -11 -13 0 -36 -9 -50 -20 -35 -28 -91 -50 -124 -50 -22 0 -25 2 -13 10 8
5 25 10 38 10 12 0 41 17 65 39 23 21 57 42 74 46 18 3 35 10 38 15 6 9 -71
-12 -107 -30 -20 -10 -19 -8 5 14 15 14 38 26 51 26 12 0 31 7 42 15 10 8 36
15 56 15 20 0 39 4 42 8 5 8 -99 -1 -154 -13 -24 -5 -24 -5 -6 10 11 8 31 15
45 15 14 1 37 8 51 16 16 10 18 13 5 8 -37 -14 -108 -17 -101 -5 4 6 17 11 30
11 12 0 31 7 42 16 18 15 18 15 -3 5 -12 -6 -30 -11 -40 -10 -14 0 -15 2 -3 6
8 3 26 14 39 24 13 11 33 19 45 19 12 0 31 7 42 16 19 15 19 15 -1 6 -11 -5
-39 -12 -63 -15 -39 -5 -41 -4 -25 9 10 7 26 14 35 14 9 0 20 5 24 11 4 8 -1
9 -17 4 l-24 -6 25 20 c15 13 41 21 65 21 38 1 39 2 15 13 -24 11 -23 11 20
15 69 5 67 17 -2 14 -42 -3 -58 -1 -54 7 4 6 26 11 49 12 41 1 41 1 12 10 -16
5 -38 7 -48 5 -9 -2 -15 0 -11 5 3 5 18 9 35 9 16 0 29 4 29 9 0 4 -20 7 -44
5 l-44 -4 14 60 c15 66 38 116 78 169 28 37 33 79 15 129 -13 38 -55 56 -114
50 -44 -5 -45 -5 -40 21 l5 26 -11 -27 c-6 -16 -14 -28 -18 -28 -4 0 -7 12 -6
28 1 15 0 20 -2 11 -2 -9 -16 -27 -30 -40 l-27 -24 22 32 c12 17 22 45 22 63
0 17 5 41 11 53 10 21 10 21 -5 3 -9 -11 -16 -32 -16 -46 0 -15 -10 -35 -21
-46 l-22 -19 16 31 c10 20 14 44 10 72 -4 28 -1 48 8 59 13 16 12 17 -3 4 -13
-10 -18 -28 -18 -65 0 -34 -7 -61 -20 -81 -24 -37 -26 -19 -3 29 13 28 14 40
5 58 -10 22 -11 22 -11 -9 -1 -37 -10 -63 -22 -63 -5 0 -4 11 1 25 6 16 6 39
0 63 l-10 37 5 -41 c3 -25 0 -48 -9 -59 -17 -24 -30 -4 -16 27 8 17 7 33 -4
63 -8 22 -15 35 -15 28 -1 -6 3 -23 8 -36 10 -27 4 -67 -10 -67 -5 0 -9 12
-10 28 0 15 -7 43 -15 62 l-13 35 5 -50 5 -50 -16 35 c-11 22 -15 49 -11 75 4
31 2 36 -6 21 -6 -10 -8 -39 -4 -65 5 -43 5 -45 -10 -26 -15 20 -15 68 0 110
5 13 2 11 -8 -5 -8 -14 -15 -38 -16 -53 0 -18 -4 -26 -11 -21 -7 4 -9 21 -6
42 7 42 -2 36 -14 -10 -7 -28 -8 -25 -5 20 4 61 -5 61 -14 -1 -5 -33 -8 -38
-15 -23 -5 11 -4 36 2 58 6 24 7 36 1 30 -5 -5 -12 -28 -15 -51 -5 -40 -6 -41
-20 -21 -8 12 -13 34 -11 50 2 16 1 27 -4 24 -4 -3 -8 -24 -9 -47 -1 -40 -1
-41 -11 -14 -7 19 -6 38 1 60 10 29 9 30 -4 13 -8 -11 -15 -36 -15 -55 l-1
-36 -15 30 -14 30 5 -30 c5 -26 4 -27 -6 -11 -6 10 -9 34 -5 55 4 25 2 31 -4
21 -5 -8 -10 -31 -10 -50 -1 -30 -2 -32 -12 -16 -7 13 -7 29 0 52 5 19 6 32 1
28 -5 -3 -9 1 -9 8 0 9 -3 9 -10 -2 -5 -8 -10 -19 -10 -25 0 -5 4 -4 8 3 5 7
8 -8 8 -37 -1 -55 -10 -48 -20 14 -5 31 -2 48 14 74 18 28 25 32 48 27 84 -21
112 -25 154 -26 42 0 53 -5 99 -46 38 -34 58 -44 77 -42 39 4 41 42 5 80 -27
28 -27 30 -10 43 10 7 41 19 68 25 47 12 52 11 74 -10 16 -15 26 -39 30 -69 8
-61 38 -132 85 -206 54 -84 78 -140 94 -228 17 -85 29 -115 58 -138 20 -16 19
-17 -31 -65 -29 -27 -73 -59 -99 -72 -26 -12 -36 -19 -22 -16 50 13 90 33 140
73 50 39 129 71 177 71 34 0 85 24 110 51 12 13 38 62 58 109 58 137 113 219
136 205 8 -5 9 -1 4 14 -6 21 3 27 20 14 6 -5 7 -4 3 1 -25 31 4 34 32 4 11
-12 20 -18 20 -13 0 5 -7 16 -16 26 -16 18 -12 39 7 39 5 0 18 -19 29 -42 22
-51 27 -43 5 9 -16 39 -13 67 7 61 6 -2 17 -20 24 -39 7 -19 13 -26 13 -17 1
9 -3 28 -9 42 -6 16 -6 27 0 31 6 4 13 -8 16 -25 4 -17 11 -33 17 -37 10 -6 5
24 -9 61 -4 11 -1 16 10 16 9 0 18 -12 22 -27 10 -48 14 -50 10 -6 -4 38 -2
43 25 52 27 9 29 8 34 -27 10 -57 15 -62 11 -9 -2 26 0 47 5 47 5 0 9 -18 9
-40 0 -23 5 -40 11 -40 8 0 9 16 5 48 -4 32 -3 41 3 27 5 -11 10 -38 11 -60 2
-40 2 -40 11 -10 5 18 5 41 -1 58 -5 15 -5 27 0 27 13 0 22 -54 14 -86 -10
-42 -23 -54 -56 -54 -46 0 -106 -37 -170 -104 -33 -33 -64 -60 -69 -58 -6 1
-8 -2 -5 -7 12 -19 -7 -41 -38 -42 -23 -1 -25 -3 -8 -6 32 -6 27 -23 -7 -23
-16 0 -34 -7 -41 -15 -8 -9 -9 -15 -2 -15 6 0 14 5 17 10 3 6 16 10 28 9 15 0
17 -2 7 -6 -15 -6 -70 -60 -70 -70 0 -3 16 9 35 26 20 17 38 31 41 31 13 0
-33 -53 -58 -66 -17 -9 -28 -18 -25 -21 7 -6 59 27 70 44 4 7 12 13 17 13 18
0 -1 -26 -30 -44 -17 -9 -33 -29 -36 -44 -4 -15 -12 -34 -18 -42 -10 -13 -9
-13 7 -1 9 7 17 22 17 32 0 19 46 56 56 46 3 -3 -4 -11 -16 -17 -18 -10 -21
-18 -16 -43 5 -23 1 -36 -16 -54 -12 -13 -17 -23 -12 -23 14 0 38 41 44 74 3
16 12 32 20 34 12 4 13 2 3 -9 -7 -8 -10 -25 -6 -37 3 -12 0 -29 -7 -37 -8
-10 -9 -15 -1 -15 10 0 16 17 23 64 2 11 8 21 15 23 18 6 6 -65 -18 -107 l-19
-35 24 29 c13 15 30 47 37 70 12 38 14 39 17 14 2 -15 -4 -42 -14 -60 -9 -18
-11 -28 -4 -22 6 6 18 29 25 50 l14 39 1 -32 c0 -17 -4 -43 -10 -58 -6 -16 -6
-24 0 -20 5 3 15 24 21 45 7 22 16 40 22 40 8 0 6 -22 -10 -75 -9 -34 8 -9 22
32 l14 38 1 -35 c0 -20 -7 -46 -16 -58 -9 -13 -14 -26 -11 -29 8 -8 47 73 47
97 0 12 5 18 10 15 15 -9 12 -41 -5 -78 -15 -30 -15 -30 0 -12 9 11 19 32 22
48 3 15 10 27 15 27 13 0 0 -58 -19 -90 -14 -23 -14 -24 0 -10 9 8 23 33 31
55 l14 40 -1 -47 c-1 -25 -4 -45 -8 -43 -3 3 -17 -7 -29 -20 -13 -14 -18 -25
-12 -25 6 0 16 9 22 20 6 11 16 19 23 17 6 -1 22 18 34 43 15 31 22 38 23 24
0 -11 -11 -42 -24 -67 -15 -31 -18 -43 -8 -35 8 7 26 36 38 63 13 28 23 42 23
32 1 -27 -23 -78 -54 -117 -28 -34 -28 -34 13 5 23 21 48 54 54 72 7 18 16 33
20 33 21 0 -15 -76 -53 -111 -17 -16 -27 -29 -22 -29 14 0 70 61 87 95 12 22
16 25 16 11 0 -23 -36 -83 -58 -96 -9 -5 -12 -10 -6 -10 14 0 74 66 74 80 0 6
5 10 10 10 18 0 -18 -57 -57 -89 -21 -17 -34 -31 -30 -31 16 0 78 54 92 79 12
21 14 22 15 7 0 -10 -15 -33 -33 -50 -31 -29 -32 -31 -11 -32 13 -1 32 9 46
25 l23 26 -26 -22 c-37 -33 -48 -28 -15 6 26 27 29 28 45 13 19 -18 10 -42
-14 -42 -8 0 -15 -4 -17 -9 -1 -5 -21 -18 -43 -30 -67 -35 -28 -23 53 17 83
40 92 41 337 33 110 -4 142 -15 189 -65 16 -17 24 -22 18 -11 -14 28 -71 80
-107 98 l-30 16 39 1 c31 0 45 -7 73 -35 20 -20 38 -34 40 -31 8 8 -74 86 -90
86 -9 0 -19 5 -22 10 -13 22 45 8 76 -17 29 -25 31 -25 20 -5 -6 12 -26 29
-44 39 -26 14 -29 18 -13 21 10 2 32 -6 48 -18 19 -14 29 -17 26 -9 -2 8 -20
22 -39 31 -21 11 -27 18 -16 18 10 0 32 -7 50 -17 30 -15 31 -15 18 0 -7 10
-19 17 -27 17 -7 0 -16 5 -20 11 -5 9 1 10 20 5 15 -4 25 -3 22 2 -8 13 51 7
69 -8 23 -19 19 -27 -20 -40 -42 -14 -62 -44 -44 -66 10 -12 24 -14 61 -9 39
6 53 4 69 -11 23 -21 25 -47 3 -65 -30 -25 -45 -68 -39 -112 12 -80 -40 -107
-245 -128 -117 -11 -278 -47 -358 -78 -161 -64 -273 -174 -361 -355 -74 -152
-91 -208 -98 -321 -4 -71 -1 -114 17 -200 37 -181 9 -330 -80 -425 -17 -18
-29 -35 -26 -37 8 -9 77 86 100 140 49 110 56 231 21 379 -17 75 -9 68 22 -19
39 -113 28 -254 -29 -368 -12 -22 -51 -85 -87 -140 -37 -55 -73 -114 -80 -132
-7 -17 -18 -30 -24 -29 -7 2 -9 1 -4 -1 12 -7 8 -23 -5 -19 -7 1 -10 1 -5 -1
4 -3 7 -12 7 -21 0 -9 15 10 33 43 18 34 53 88 78 120 119 154 179 288 179
396 l0 50 29 -15 c35 -19 105 -114 103 -141 -1 -14 1 -16 7 -6 6 10 19 5 54
-22 57 -43 118 -58 189 -45 29 5 58 14 63 20 7 8 4 9 -10 4 -10 -4 -38 -10
-61 -13 -85 -11 -216 62 -263 146 -13 23 -38 51 -55 62 -23 14 -26 19 -13 19
20 0 62 -40 109 -102 16 -21 52 -48 83 -64 59 -28 110 -33 250 -24 37 3 68 -1
80 -9 19 -11 18 -12 -7 -8 -15 2 -33 0 -40 -4 -9 -6 -5 -9 12 -9 14 0 31 -4
39 -9 9 -6 -5 -7 -35 -5 l-49 3 42 -9 c46 -10 88 -29 80 -37 -3 -2 -14 0 -24
5 -29 15 -83 23 -83 12 0 -6 9 -10 20 -10 27 0 92 -33 111 -56 9 -12 4 -11
-17 5 -17 12 -51 24 -75 27 l-44 4 47 -15 c26 -8 50 -21 54 -27 5 -8 2 -9 -12
-4 -29 12 -151 20 -157 10 -3 -5 20 -9 52 -10 63 0 154 -42 173 -78 11 -21 10
-21 -13 0 -38 34 -63 43 -125 48 -56 5 -56 5 -13 -3 49 -10 135 -49 125 -58
-3 -3 -12 -1 -20 6 -8 6 -38 14 -67 16 l-54 4 46 -8 c52 -10 95 -34 110 -62 9
-18 8 -18 -23 0 -18 11 -51 22 -73 25 l-40 6 38 -12 c39 -13 112 -66 103 -75
-2 -3 -15 4 -27 16 -29 27 -81 41 -144 39 l-50 -1 55 -6 c30 -4 66 -13 80 -20
32 -17 80 -62 80 -75 0 -5 -10 0 -23 12 -28 26 -89 52 -119 51 -16 -1 -12 -4
14 -11 36 -9 124 -77 102 -78 -6 0 -17 7 -24 15 -17 20 -105 45 -154 44 -41
-1 -41 -1 9 -9 51 -7 128 -41 140 -61 4 -6 -11 -1 -34 10 -22 12 -53 21 -68
20 l-28 -1 27 -8 c59 -18 131 -80 114 -97 -3 -3 -8 2 -12 11 -9 23 -77 56
-111 55 l-28 -1 30 -7 c60 -15 105 -54 105 -91 0 -11 -5 -9 -18 7 -32 40 -83
63 -137 62 l-50 -1 52 -8 c53 -8 106 -38 123 -70 16 -30 12 -37 -6 -11 -18 25
-87 61 -119 61 -12 0 -4 -8 22 -20 47 -21 93 -62 93 -82 0 -8 -5 -6 -11 5 -13
22 -102 67 -131 66 -22 -1 -22 -1 2 -8 48 -15 89 -41 110 -71 24 -34 13 -41
-16 -9 -26 29 -68 49 -101 49 -25 -1 -24 -2 12 -15 39 -14 95 -67 95 -91 0 -6
-17 6 -39 27 -21 22 -45 39 -52 39 -8 -1 -4 -6 9 -14 25 -13 62 -63 62 -83 0
-7 -15 2 -32 20 -18 18 -25 24 -16 13 23 -28 40 -76 28 -76 -6 0 -10 6 -10 14
0 15 -77 86 -93 86 -5 0 2 -9 17 -21 27 -21 66 -87 66 -111 0 -7 -8 1 -19 17
-10 17 -29 39 -42 50 l-24 20 22 -25 c23 -26 58 -100 47 -100 -3 0 -17 14 -31
30 -13 17 -30 30 -36 30 -6 0 -1 -10 11 -22 21 -23 46 -78 36 -78 -4 0 -15 11
-26 25 -11 14 -24 25 -30 25 -7 0 -2 -10 9 -22 11 -13 24 -34 28 -47 6 -18 -2
-14 -37 23 -25 25 -50 46 -58 46 -7 0 0 -10 15 -22 26 -20 55 -73 55 -99 0 -7
-10 3 -22 21 -13 19 -30 36 -38 38 -10 3 -8 -3 7 -19 12 -13 24 -37 28 -54 5
-25 4 -28 -7 -15 -7 8 -21 22 -32 30 -13 10 -11 4 8 -24 29 -43 25 -70 -5 -32
-11 14 -34 35 -52 47 l-32 22 32 -34 c30 -32 53 -76 53 -102 0 -6 -11 5 -25
26 -14 20 -30 37 -35 37 -5 0 2 -16 15 -36 35 -52 31 -71 -6 -32 l-31 33 20
-30 c11 -16 22 -41 26 -55 7 -23 5 -23 -21 8 -38 43 -48 41 -18 -4 33 -48 33
-74 0 -37 -13 15 -25 22 -25 16 0 -7 4 -13 8 -13 5 0 14 -11 20 -25 16 -34 9
-31 -34 13 -33 34 -34 34 -10 4 14 -19 26 -37 26 -42 0 -5 3 -15 6 -24 10 -26
-12 -18 -24 9 -6 14 -17 25 -23 25 -8 0 -7 -6 3 -17 9 -10 19 -29 22 -43 l7
-25 -22 25 c-18 20 -21 21 -15 5 15 -38 16 -50 7 -65 -9 -13 -12 -12 -26 5
-14 19 -15 18 -3 -8 9 -21 9 -30 0 -39 -9 -9 -12 -8 -12 4 0 9 -12 30 -26 45
l-25 28 21 -31 c14 -20 20 -42 18 -60 l-4 -29 -12 29 c-7 16 -15 26 -18 23 -3
-3 -1 -14 5 -25 16 -31 15 -47 -3 -33 -12 10 -13 8 -9 -8 6 -23 -12 -29 -21
-8 -3 6 -4 3 -1 -8 8 -34 -74 -81 -195 -111 -84 -21 -123 -25 -201 -22 -95 3
-97 3 -140 41 -24 21 -67 53 -96 72 -85 57 -112 111 -83 166 8 15 7 27 -7 50
-18 31 -18 31 5 46 29 20 28 51 -3 65 -20 9 -28 8 -44 -6 -12 -11 -27 -15 -42
-11 -28 6 -38 0 -67 -42 -28 -40 -29 -96 -2 -123 27 -27 40 -25 73 9 50 53 24
134 -31 95 -28 -19 -29 -54 -2 -54 11 0 20 5 20 10 0 6 -5 10 -11 10 -8 0 -8
5 1 15 7 8 16 12 21 9 14 -8 11 -42 -4 -51 -8 -4 -17 -17 -21 -28 -7 -19 -8
-19 -27 4 -24 29 -24 44 -1 84 22 41 32 47 60 40 14 -3 30 1 42 12 10 9 24 14
29 10 16 -9 13 -25 -4 -25 -28 0 -37 -37 -19 -76 13 -26 14 -38 5 -47 -6 -6
-11 -30 -11 -53 0 -54 25 -85 100 -125 32 -17 69 -42 82 -56 l23 -25 -25 6
c-14 4 -58 23 -98 43 -57 27 -81 45 -108 83 -19 27 -44 52 -55 55 -37 12 -88
66 -120 126 -31 57 -57 84 -168 177 -28 24 -62 65 -76 91 -22 45 -165 202
-165 183 0 -5 27 -38 60 -74 33 -36 71 -88 84 -115 29 -57 55 -87 111 -128 72
-52 106 -89 141 -152 36 -63 93 -123 119 -123 7 0 28 -20 46 -45 46 -64 118
-109 239 -150 l105 -36 -62 5 c-106 7 -227 76 -358 202 -28 27 -65 70 -83 95
-17 26 -78 91 -136 145 -57 55 -115 117 -127 139 -41 70 -360 489 -384 505
-22 13 -26 13 -49 -9 -18 -17 -26 -35 -26 -57 0 -21 -8 -41 -22 -55 -18 -17
-19 -20 -4 -12 10 6 28 30 40 54 12 24 26 44 31 46 11 3 80 -77 238 -277 96
-121 136 -178 165 -237 13 -25 55 -70 105 -113 46 -39 105 -99 130 -134 67
-92 159 -173 273 -242 140 -87 180 -98 323 -91 122 5 240 31 315 69 61 30 167
119 197 164 47 70 127 218 154 284 29 68 115 237 196 380 51 92 123 247 146
320 9 25 18 73 22 108 l6 63 62 4 c41 2 68 -2 80 -11 10 -7 36 -14 59 -14 34
0 43 -4 52 -26 14 -30 67 -54 104 -47 19 4 31 -1 45 -17 25 -30 70 -52 101
-49 15 2 37 -3 49 -9 26 -14 77 2 102 31 18 23 38 21 51 -3 6 -11 20 -20 31
-20 17 0 14 5 -14 30 -19 17 -37 30 -41 30 -3 0 -26 -14 -50 -32 -43 -30 -46
-30 -70 -15 -14 10 -35 17 -46 17 -33 0 -56 16 -70 49 -12 31 -69 59 -90 46
-17 -10 -46 4 -57 28 -10 21 -8 22 27 21 21 -1 49 -10 64 -19 32 -21 140 -35
182 -23 58 16 84 44 84 92 0 42 21 76 47 76 19 0 73 70 73 93 0 12 -7 33 -17
46 -11 17 -12 22 -3 19 7 -2 27 -29 44 -59 30 -52 31 -58 31 -179 0 -101 3
-131 18 -157 22 -41 33 -44 12 -3 -19 38 -19 98 1 167 10 34 15 77 12 109 -3
30 -2 54 2 54 19 0 30 -30 30 -81 0 -42 5 -63 21 -83 31 -39 88 -72 139 -81
78 -13 80 -16 80 -103 0 -77 0 -79 37 -113 l37 -34 -33 39 c-27 32 -32 44 -27
70 20 102 19 116 -4 141 -13 14 -39 27 -59 31 -59 9 -89 25 -122 61 -27 32
-29 39 -23 81 4 26 8 48 9 50 1 1 16 -3 33 -9 26 -9 40 -6 103 22 94 40 117
35 134 -34 7 -26 22 -58 34 -70 11 -13 21 -32 21 -43 0 -63 89 -121 145 -96
48 22 40 105 -12 118 -37 10 -72 -33 -43 -51 6 -3 7 1 4 9 -9 23 23 20 35 -3
13 -24 5 -31 -35 -31 -37 0 -54 21 -54 68 0 19 -10 37 -30 55 -16 15 -30 35
-30 45 0 10 -9 34 -19 55 -24 47 -11 48 66 10 52 -25 58 -26 104 -14 43 11 53
11 74 -3 14 -9 25 -12 25 -7 0 15 -53 31 -100 28 -39 -2 -53 3 -88 32 l-43 33
23 16 c13 9 29 24 36 34 16 22 45 23 62 2 24 -27 54 -39 110 -41 30 -1 71 -4
90 -6 19 -2 24 -2 10 0 -14 3 -32 11 -41 19 -9 8 -33 13 -58 12 -36 -1 -46 3
-75 35 -44 49 -89 51 -131 7 -22 -23 -35 -29 -55 -25 -14 3 -37 -1 -52 -9 -16
-9 -30 -11 -33 -5 -6 9 35 29 60 29 28 0 46 14 60 46 15 36 33 42 77 25 20 -8
88 9 88 21 0 5 -142 -1 -156 -6 -8 -3 -19 -17 -24 -31 -8 -22 -15 -25 -58 -25
-55 0 -82 -20 -82 -61 0 -29 -17 -49 -40 -49 -9 0 -30 -13 -46 -30 -16 -16
-39 -30 -51 -30 -27 0 -143 99 -143 122 0 20 -29 38 -59 38 -11 0 -35 -12 -51
-27 -42 -37 -51 -98 -21 -130 37 -39 26 -60 -53 -98 -33 -16 -44 -29 -57 -65
-10 -26 -26 -50 -40 -57 -32 -16 -135 -6 -177 18 -18 11 -44 19 -56 19 -29 0
-100 29 -72 30 10 0 44 -6 75 -14 57 -15 104 -20 153 -17 31 1 163 111 171
141 3 11 0 38 -5 60 -13 49 8 114 54 166 24 28 37 34 69 34 31 0 48 -8 89 -45
28 -25 62 -48 76 -51 43 -11 87 8 104 44 14 30 18 32 49 27 42 -8 85 9 106 42
22 33 73 53 139 53 74 0 100 12 120 55 17 36 20 37 55 30 20 -4 47 -9 61 -12
19 -3 35 4 63 29 20 19 37 40 37 46 0 6 -19 -7 -42 -30 l-41 -40 -53 22 c-58
24 -71 21 -113 -24 -22 -24 -30 -26 -73 -20 -69 9 -133 -11 -180 -58 -37 -37
-42 -39 -83 -32 -38 5 -47 3 -69 -19 -14 -15 -26 -33 -26 -42 0 -29 -49 -17
-93 24 -54 49 -78 61 -121 61 -71 0 -118 -35 -162 -122 -26 -52 -32 -94 -21
-150 7 -35 6 -38 -35 -66 -24 -17 -51 -40 -60 -51 -22 -26 -66 -27 -172 -5
-94 19 -125 11 -193 -50 -59 -53 -83 -66 -122 -66 -24 0 -31 4 -31 20 0 11
-11 46 -24 78 -13 31 -27 82 -31 112 -6 51 -4 59 29 110 78 121 88 163 65 255
-10 41 -9 50 20 111 37 80 39 114 7 168 -29 50 -49 121 -42 150 11 44 67 116
90 116 28 0 53 -18 69 -50 10 -20 20 -25 52 -25 34 0 40 -3 43 -23 4 -30 28
-39 50 -19 9 8 28 18 42 22 68 20 76 62 25 129 -19 26 -35 48 -35 50 0 2 19 0
41 -5 32 -8 47 -6 64 5 20 13 23 23 21 78 0 35 -4 68 -8 74 -4 6 -25 14 -47
18 -55 8 -60 24 -21 56 l34 27 -18 37 c-20 43 -55 56 -91 32 -33 -22 -35 -21
-35 20 0 21 10 50 25 72 30 44 32 81 5 110 -27 28 -66 38 -102 24 -41 -15 -34
3 10 25 45 22 50 42 20 78 -17 20 -36 28 -68 32 -58 5 -94 -17 -156 -96 -25
-33 -53 -62 -62 -66 -8 -3 -80 -2 -159 1 l-144 7 -22 30 c-71 96 -96 113 -229
155 -150 48 -168 59 -199 116 -22 43 -23 44 -5 91 23 59 122 167 180 194 23
12 62 21 85 21 48 0 107 24 120 49 5 9 11 38 15 64 5 43 3 51 -21 73 -21 19
-36 24 -82 24 -122 0 -249 -58 -353 -160 -58 -58 -75 -85 -137 -213 -40 -81
-73 -147 -76 -147 -11 0 34 206 82 373 27 97 25 150 -7 167 -10 5 -49 10 -85
10 -60 0 -69 -3 -95 -28 -29 -30 -32 -42 -64 -237 -22 -133 -67 -316 -77 -310
-4 3 -17 48 -29 101 -22 95 -53 165 -123 279 -37 58 -67 139 -67 177 0 26 -18
60 -44 80 -22 18 -72 21 -138 9z m697 -126 l30 -14 -30 7 c-16 4 -55 7 -85 6
-35 0 -47 2 -35 7 32 12 87 9 120 -6z m-75 -25 c-42 -5 -46 -7 -20 -8 47 -3
110 -21 110 -32 0 -6 -10 -6 -26 0 -14 6 -42 9 -62 9 -36 -1 -36 -2 10 -9 25
-5 55 -13 65 -19 24 -14 2 -14 -34 0 -17 6 -46 7 -73 3 l-45 -8 63 -6 c41 -5
69 -13 80 -25 16 -17 16 -17 -3 -10 -11 5 -40 9 -65 11 -25 1 -31 0 -15 -2 42
-7 85 -25 85 -36 0 -6 -8 -7 -17 -3 -10 4 -45 9 -78 11 l-60 3 50 -9 c56 -10
97 -29 89 -42 -3 -4 -14 -4 -24 2 -10 5 -36 9 -57 9 -33 -2 -34 -3 -8 -6 40
-5 85 -23 85 -34 0 -5 -19 -7 -42 -4 -45 5 -43 1 5 -9 33 -8 36 -26 5 -27 -17
-1 -19 -2 -5 -6 36 -10 15 -20 -35 -17 -57 4 -55 -1 5 -11 40 -6 51 -24 15
-26 -17 -1 -19 -2 -5 -6 35 -9 16 -18 -35 -16 l-53 2 44 -9 c63 -14 79 -33 21
-26 l-45 6 38 -11 c41 -12 51 -34 12 -27 -14 3 -25 1 -25 -3 0 -5 9 -9 19 -9
11 0 23 -5 26 -11 5 -7 -4 -8 -27 -4 -18 3 -44 2 -58 -4 -23 -9 -21 -10 17
-10 23 -1 48 -4 57 -7 31 -12 15 -19 -36 -17 l-53 1 47 -7 c73 -11 80 -28 11
-25 -32 1 -44 0 -28 -3 40 -6 57 -23 24 -23 -13 0 -48 -6 -77 -14 -29 -7 -55
-10 -57 -5 -3 4 6 47 20 94 14 48 34 153 46 234 11 80 25 161 30 179 l11 32
66 -2 67 -1 -55 -7z m610 -49 c0 -33 -3 -62 -7 -64 -5 -3 -8 24 -8 59 0 35 3
64 8 64 4 0 7 -27 7 -59z m38 47 c7 -7 12 -21 11 -32 -1 -18 -2 -17 -9 4 -4
14 -9 18 -9 10 -1 -13 -2 -13 -11 0 -19 29 -6 42 18 18z m-1028 -348 c29 -29
25 -55 -20 -131 -51 -86 -58 -106 -70 -193 -6 -39 -15 -82 -20 -96 -11 -25
-58 -62 -97 -74 -30 -10 -58 -59 -74 -129 -8 -39 -23 -70 -47 -98 -19 -22 -36
-38 -38 -37 -2 2 3 26 11 53 60 197 -96 307 -240 168 -16 -15 -47 -41 -67 -56
l-38 -28 7 48 c19 149 135 299 363 474 117 89 132 98 192 108 88 14 116 13
138 -9z m883 -315 c-3 -9 -8 -14 -10 -11 -3 3 -2 9 2 15 9 16 15 13 8 -4z
m-232 -196 c42 -15 67 -35 86 -73 l15 -29 -86 6 c-68 5 -98 12 -138 34 -29 15
-53 33 -55 39 -9 27 118 43 178 23z m-218 -94 c-3 -9 -8 -14 -10 -11 -3 3 -2
9 2 15 9 16 15 13 8 -4z m1435 -63 c6 -14 11 -26 9 -27 -80 -42 -76 -85 9
-103 l39 -8 0 -59 0 -60 -60 -3 c-33 -2 -64 -7 -69 -12 -5 -5 9 -28 33 -56 22
-26 41 -57 41 -69 0 -21 -17 -33 -102 -73 -5 -2 -8 6 -8 17 0 27 -34 45 -59
31 -27 -14 -29 -14 -46 20 -14 27 -60 60 -83 60 -15 0 -86 -60 -99 -83 -19
-35 -15 -96 13 -172 38 -103 38 -105 4 -169 -34 -63 -36 -81 -25 -201 l7 -70
-43 -64 c-23 -35 -48 -80 -55 -100 -12 -35 -14 -36 -61 -37 -26 0 -84 -4 -129
-9 -57 -5 -92 -4 -120 5 -56 18 -125 64 -154 104 -31 42 -74 69 -99 61 -10 -3
-23 0 -28 7 -20 27 -85 240 -85 279 1 57 26 127 94 262 69 136 137 213 236
271 71 40 94 43 173 20 82 -25 127 -51 183 -108 30 -30 42 -38 29 -20 -55 77
-151 139 -240 153 -45 7 -46 8 -20 16 69 19 198 -53 268 -149 16 -21 29 -34
29 -29 0 19 -71 103 -116 137 -26 20 -61 41 -80 48 -37 13 -45 28 -15 28 33 0
163 -102 203 -159 47 -67 50 -59 5 12 -36 56 -131 147 -153 147 -8 0 -14 5
-14 10 0 6 11 10 24 10 34 0 141 -101 172 -162 29 -57 41 -65 17 -10 -28 60
-75 122 -117 153 -34 25 -37 29 -18 29 33 0 105 -71 141 -140 18 -33 34 -60
36 -60 2 0 -3 21 -12 47 -11 30 -36 68 -73 105 -39 41 -51 58 -38 58 38 0 128
-103 144 -165 3 -14 8 -24 11 -21 14 14 -23 91 -68 140 -28 31 -46 56 -39 56
25 0 72 -44 100 -93 16 -29 30 -48 30 -44 0 17 -43 93 -68 120 -20 21 -22 27
-10 27 18 0 51 -42 63 -78 4 -13 9 -21 12 -19 2 3 -5 27 -16 52 -12 26 -21 48
-21 49 0 1 9 2 20 3 20 2 36 -19 51 -66 6 -21 7 -22 8 -6 1 11 -6 33 -14 49
-17 33 -18 36 -7 36 5 0 14 -10 21 -22 11 -22 11 -21 6 5 -7 33 10 28 26 -7 8
-18 9 -17 4 7 -8 39 12 26 25 -16 9 -30 10 -30 5 11 -6 46 0 54 16 20 9 -22 9
-21 6 5 -4 27 8 38 16 15 2 -7 3 -4 1 6 -2 11 5 30 16 43 17 22 19 23 30 6 9
-15 10 -14 5 7 -6 25 -6 25 11 5 16 -20 16 -20 10 0 -5 17 -1 20 22 21 21 1
31 -5 40 -24z m-1550 -34 c-9 -13 -21 -23 -28 -23 -8 0 -15 -7 -17 -15 -4 -13
-3 -13 6 0 8 11 11 12 11 2 0 -8 5 -10 12 -6 8 5 9 2 4 -12 -5 -10 -11 -27
-13 -36 -3 -10 -9 -18 -14 -18 -5 0 -4 12 1 26 14 35 12 44 -4 15 -11 -20 -14
-21 -19 -7 -8 20 20 79 32 71 5 -2 14 2 21 10 19 23 24 18 8 -7z m21 -215 c12
-40 1 -82 -35 -137 l-27 -40 -23 29 c-35 44 -48 122 -34 193 7 31 14 60 16 63
8 14 94 -77 103 -108z m1331 -1213 c-8 -5 -22 -9 -30 -9 -10 0 -8 3 5 9 27 12
43 12 25 0z"/>
<path d="M3096 4986 c-55 -58 -119 -271 -102 -339 9 -36 41 -36 59 1 8 15 17
55 20 89 3 43 14 78 33 110 76 133 79 140 65 157 -20 24 -40 20 -75 -18z"/>
<path d="M5027 4361 c-4 -17 -3 -21 5 -13 5 5 8 16 6 23 -3 8 -7 3 -11 -10z"/>
<path d="M4760 4251 c0 -5 5 -13 10 -16 6 -3 10 -2 10 4 0 5 -4 13 -10 16 -5
3 -10 2 -10 -4z"/>
<path d="M4273 4083 c-29 -9 -69 -31 -90 -49 l-38 -34 54 32 c52 31 59 33 150
33 113 -1 153 -16 220 -85 39 -39 42 -41 26 -13 -26 45 -101 98 -164 117 -66
19 -90 19 -158 -1z"/>
<path d="M4246 4034 c-34 -11 -65 -31 -102 -69 -30 -30 -54 -60 -53 -67 0 -7
5 -4 12 7 29 49 89 95 144 111 63 18 174 21 217 4 16 -6 31 -8 33 -6 3 3 -19
12 -48 20 -65 20 -138 19 -203 0z"/>
<path d="M4270 3994 c-78 -28 -145 -82 -186 -149 -11 -19 -1 -11 28 21 69 75
146 107 268 112 91 4 98 2 154 -27 33 -18 53 -24 46 -15 -8 8 -37 27 -64 41
-66 34 -179 41 -246 17z"/>
<path d="M4102 3965 c-18 -20 -39 -63 -51 -100 -11 -37 -35 -90 -55 -118 -76
-110 -92 -211 -47 -297 11 -22 21 -51 21 -63 0 -34 26 -64 75 -86 30 -13 50
-31 67 -60 12 -22 27 -41 31 -41 18 0 -55 90 -90 111 -21 12 -40 24 -42 26 -3
2 -8 26 -11 55 l-7 51 19 -27 c11 -14 26 -26 34 -26 8 0 24 -11 36 -25 12 -14
29 -25 37 -25 9 0 30 -17 48 -37 28 -34 34 -37 52 -25 28 16 73 15 97 -3 10
-8 26 -15 34 -15 8 0 -3 10 -25 21 -30 16 -50 20 -85 16 -42 -5 -46 -3 -65 26
-11 18 -29 33 -40 36 -11 2 -30 14 -42 27 -12 13 -29 24 -37 24 -9 0 -22 13
-30 29 -9 16 -23 31 -32 35 -30 12 -8 16 24 5 18 -6 32 -17 32 -25 0 -8 15
-21 34 -29 19 -8 38 -19 41 -25 4 -6 20 -8 39 -5 24 5 39 1 61 -16 l30 -23
-25 28 c-21 23 -31 27 -58 22 -24 -4 -38 0 -53 15 -10 10 -25 19 -32 19 -8 0
-18 10 -23 21 -6 12 -25 27 -44 33 -18 6 -42 23 -54 39 -18 25 -19 31 -8 75
23 86 53 136 89 144 17 5 40 19 50 31 45 56 131 114 196 132 83 22 185 16 249
-15 42 -20 42 -20 20 -1 -54 47 -201 65 -294 37 -61 -18 -126 -64 -167 -119
-18 -25 -42 -48 -52 -50 -20 -5 -25 3 -10 18 5 6 16 37 26 69 9 33 30 79 46
103 36 52 32 55 -9 8z"/>
<path d="M4617 3934 c-10 -13 -21 -39 -24 -58 l-5 -32 -38 18 c-47 23 -160 42
-213 35 -49 -7 -157 -59 -183 -89 -15 -18 -12 -17 19 6 63 46 142 69 217 63
72 -6 171 -39 192 -64 7 -9 9 -14 3 -12 -5 3 -28 14 -50 25 -55 26 -209 27
-278 0 -67 -25 -54 -29 18 -4 82 28 182 22 259 -16 31 -15 56 -32 56 -38 0 -5
-3 -8 -7 -6 -56 29 -99 41 -153 44 l-65 4 80 -17 c76 -17 155 -54 155 -73 0
-5 -24 2 -52 15 -77 36 -188 35 -269 -1 -33 -15 -58 -29 -55 -31 2 -2 24 6 48
18 81 43 269 19 323 -41 24 -26 16 -25 -41 5 -37 20 -61 25 -113 24 -95 -1
-115 -14 -23 -15 76 0 148 -24 167 -55 12 -19 -1 -19 -40 1 -41 21 -132 26
-170 10 -13 -5 0 -6 32 -3 37 4 66 1 97 -11 61 -23 66 -32 53 -89 -8 -39 -7
-57 6 -101 9 -29 16 -70 16 -92 -2 -33 -3 -34 -6 -9 -3 25 -16 73 -39 144 -2
8 -6 12 -8 10 -3 -2 2 -33 9 -69 8 -36 14 -85 13 -110 l0 -45 -9 57 c-15 104
-28 132 -22 47 7 -88 -13 -162 -51 -198 -22 -21 -22 -19 5 35 31 60 36 115 19
204 -6 34 -7 25 -3 -35 7 -104 -8 -158 -57 -207 -32 -33 -44 -38 -86 -40 -42
-1 -44 -2 -13 -5 53 -6 189 41 223 76 19 20 31 49 42 105 15 71 15 81 0 120
-22 58 -20 102 9 164 29 62 31 95 10 145 -24 58 -20 137 10 181 27 40 20 50
-8 10z"/>
<path d="M4300 3785 c-32 -18 -25 -18 25 0 22 8 31 14 20 14 -11 0 -31 -6 -45
-14z"/>
<path d="M4300 3680 c0 -5 7 -7 15 -4 8 4 15 8 15 10 0 2 -7 4 -15 4 -8 0 -15
-4 -15 -10z"/>
<path d="M4531 3544 c0 -11 3 -14 6 -6 3 7 2 16 -1 19 -3 4 -6 -2 -5 -13z"/>
<path d="M4502 3485 c0 -16 2 -22 5 -12 2 9 2 23 0 30 -3 6 -5 -1 -5 -18z"/>
<path d="M4472 3336 c-2 -52 -36 -120 -70 -142 -16 -11 -43 -17 -67 -16 -21 0
-44 -3 -50 -7 -5 -5 -21 -11 -35 -13 -14 -3 13 -4 59 -3 83 2 84 2 117 37 36
40 57 102 51 151 -3 29 -4 28 -5 -7z"/>
<path d="M4056 3329 c9 -11 23 -19 29 -19 7 0 29 -20 49 -45 41 -50 73 -58
115 -28 21 14 30 14 72 4 48 -13 69 -9 69 11 0 7 -5 6 -15 -2 -11 -9 -23 -9
-57 5 -40 15 -47 15 -81 0 -42 -17 -69 -10 -87 25 -6 11 -33 30 -61 43 -42 21
-47 22 -33 6z"/>
<path d="M4416 3251 c-19 -36 -41 -44 -82 -31 -29 10 -39 8 -73 -11 -24 -13
-49 -20 -65 -17 -34 7 -34 -10 0 -18 18 -5 41 0 69 14 35 17 50 19 76 12 29
-9 35 -6 66 26 18 19 33 40 33 45 0 17 -9 9 -24 -20z"/>
<path d="M2693 5345 c-3 -9 -3 -18 -1 -21 3 -3 8 4 11 16 6 23 -1 27 -10 5z"/>
<path d="M4033 5310 c0 -30 2 -43 4 -27 2 15 2 39 0 55 -2 15 -4 2 -4 -28z"/>
<path d="M4053 5325 c0 -22 2 -30 4 -17 2 12 2 30 0 40 -3 9 -5 -1 -4 -23z"/>
<path d="M2967 5253 c-4 -3 -7 -11 -7 -17 0 -6 5 -5 12 2 6 6 9 14 7 17 -3 3
-9 2 -12 -2z"/>
<path d="M3827 5069 c7 -7 15 -10 18 -7 3 3 -2 9 -12 12 -14 6 -15 5 -6 -5z"/>
<path d="M4846 4718 c5 -8 2 -9 -11 -4 -16 6 -16 4 -4 -10 8 -10 15 -12 17 -5
2 6 9 8 15 4 7 -4 6 1 -2 10 -15 19 -26 23 -15 5z"/>
<path d="M4880 4558 c-25 -41 -47 -164 -34 -186 20 -32 31 -22 38 32 3 31 15
79 27 107 30 77 8 111 -31 47z m18 -35 c-12 -27 -25 -73 -29 -103 l-8 -55 3
65 c2 36 12 82 22 103 26 54 37 45 12 -10z"/>
<path d="M4322 4554 c-24 -8 -58 -24 -75 -35 -18 -10 -41 -19 -52 -19 -11 0
-36 -10 -55 -23 -19 -13 -50 -29 -68 -37 -44 -17 -93 -77 -114 -137 -12 -34
-26 -53 -43 -61 -14 -7 -24 -19 -24 -29 1 -15 2 -15 6 -2 2 9 15 21 29 28 15
7 33 30 46 59 34 77 63 109 118 127 27 9 52 20 55 25 3 5 22 14 43 20 20 7 58
25 83 41 25 16 75 35 110 43 58 13 60 14 24 15 -22 0 -60 -7 -83 -15z"/>
<path d="M4580 4560 c-8 -5 -10 -10 -5 -10 6 0 17 5 25 10 8 5 11 10 5 10 -5
0 -17 -5 -25 -10z"/>
<path d="M4458 4553 c6 -2 18 -2 25 0 6 3 1 5 -13 5 -14 0 -19 -2 -12 -5z"/>
<path d="M4597 4538 c-22 -16 -37 -19 -70 -15 l-42 6 35 -13 c31 -12 41 -11
83 6 49 18 49 18 88 -4 22 -12 49 -37 61 -56 11 -18 23 -31 25 -28 8 7 -66
105 -87 116 -29 15 -62 11 -93 -12z"/>
<path d="M4538 4543 c7 -3 16 -2 19 1 4 3 -2 6 -13 5 -11 0 -14 -3 -6 -6z"/>
<path d="M4368 4529 c-21 -5 -63 -22 -94 -39 -31 -16 -62 -30 -69 -30 -6 0
-20 -9 -29 -19 -10 -11 -32 -23 -50 -27 -77 -16 -116 -61 -116 -135 0 -22 -5
-50 -11 -62 -10 -21 -10 -21 5 -3 9 11 16 39 16 64 0 54 36 95 101 112 24 7
54 20 67 31 14 10 33 19 42 19 10 0 41 16 70 36 38 26 66 37 107 41 35 4 50 9
41 14 -16 10 -31 10 -80 -2z"/>
<path d="M4364 4484 c-21 -15 -50 -35 -63 -45 -13 -11 -33 -19 -45 -19 -11 0
-39 -12 -61 -25 -22 -14 -50 -25 -62 -25 -38 0 -75 -41 -83 -93 -4 -25 -3 -44
2 -41 4 3 8 20 8 38 0 42 24 64 82 75 26 4 58 18 73 30 15 11 35 21 44 21 9 0
39 16 68 36 64 44 119 53 172 29 37 -16 40 -16 82 3 24 11 53 22 64 25 17 4
16 5 -4 6 -14 0 -39 -4 -58 -11 -27 -10 -38 -9 -68 5 -52 25 -105 22 -151 -9z"/>
<path d="M2675 4488 c-11 -6 -50 -42 -87 -79 -37 -38 -100 -90 -140 -116 -135
-87 -209 -183 -263 -344 -53 -156 -69 -322 -40 -429 8 -30 15 -86 15 -125 0
-38 4 -81 8 -95 6 -20 8 -14 12 30 5 51 7 55 35 61 l30 7 -34 1 c-40 1 -36 10
11 21 l33 8 -39 1 c-49 1 -40 12 17 22 l42 6 -49 2 c-66 1 -47 24 20 24 40 0
43 2 23 9 -13 5 -42 7 -64 3 -33 -5 -38 -4 -27 7 8 8 38 13 77 13 42 0 61 3
54 10 -5 5 -40 9 -76 8 -51 -1 -63 1 -54 10 7 7 45 12 96 12 77 0 82 1 52 12
-40 14 -92 16 -135 4 -25 -8 -32 -7 -29 2 9 29 137 31 222 3 11 -3 0 4 -25 16
-36 17 -62 22 -128 22 -58 0 -79 3 -72 10 6 6 53 11 108 11 74 -1 105 -5 130
-19 19 -9 36 -16 38 -13 3 2 -19 15 -48 27 -36 16 -81 24 -140 28 -94 5 -113
15 -49 26 81 13 271 -33 271 -65 0 -5 5 -9 12 -9 23 0 -35 49 -85 71 -38 16
-78 24 -144 27 -109 5 -115 22 -9 22 85 0 151 -18 209 -56 31 -20 37 -22 24
-7 -42 48 -205 101 -277 91 -16 -3 -30 -1 -30 2 0 4 19 10 43 13 81 11 226
-33 285 -86 12 -11 22 -16 22 -10 0 13 -79 65 -141 92 -26 12 -84 25 -130 30
l-84 10 100 -3 c104 -4 184 -25 229 -63 12 -10 8 -4 -9 13 -44 43 -134 76
-227 82 -43 2 -75 8 -72 13 14 23 199 -3 263 -35 17 -9 48 -31 68 -48 l38 -32
-30 33 c-57 63 -152 105 -266 120 l-64 8 72 2 c85 1 177 -24 231 -65 29 -22
33 -23 18 -6 -48 55 -227 112 -295 95 -18 -4 -22 -3 -16 7 5 9 30 11 89 8 87
-4 165 -33 236 -85 l35 -26 -29 31 c-58 63 -231 126 -297 109 -13 -3 -19 -1
-16 6 7 20 111 12 179 -13 35 -13 83 -36 108 -53 25 -17 39 -24 32 -15 -21 26
-87 68 -149 94 -43 19 -49 23 -23 18 47 -9 131 -47 177 -80 l38 -26 -40 36
c-54 49 -127 84 -211 100 -50 10 -59 14 -34 15 82 2 208 -49 271 -109 21 -20
39 -34 39 -30 0 4 -23 28 -50 54 -52 48 -90 69 -170 92 -33 9 -38 12 -19 13
47 2 147 -40 196 -82 l48 -41 -40 42 c-50 53 -108 82 -210 103 -56 12 -69 17
-45 18 77 2 190 -41 249 -94 23 -21 41 -33 41 -27 0 37 -163 129 -253 142
l-52 8 51 1 c96 2 201 -43 260 -111 16 -19 25 -27 20 -18 -42 67 -163 148
-226 151 -14 1 -36 5 -50 10 -18 6 -7 7 35 4 84 -6 150 -31 196 -75 47 -44 52
-38 7 9 -40 41 -92 68 -166 85 -52 13 -54 14 -20 15 62 2 147 -37 200 -90 27
-27 44 -40 39 -30 -14 26 -84 87 -123 107 -18 10 -53 23 -78 30 -35 10 -39 12
-18 13 70 2 179 -57 231 -126 15 -20 27 -32 27 -26 0 6 -22 36 -49 65 -45 49
-67 62 -171 106 -23 10 -22 10 10 6 65 -10 159 -63 187 -105 29 -44 45 -54 18
-11 -45 69 -104 113 -182 131 -36 9 -36 9 -8 10 45 1 125 -41 168 -87 20 -23
37 -38 37 -33 0 5 -19 30 -42 56 -31 33 -58 52 -98 65 -42 15 -49 19 -27 20
34 0 82 -23 120 -59 19 -17 26 -20 22 -9 -8 21 -61 62 -106 82 -24 10 -28 15
-14 15 36 1 101 -35 134 -75 32 -38 32 -38 17 -7 -18 36 -66 75 -111 91 -18 6
-23 11 -12 11 31 2 82 -25 110 -58 15 -18 27 -27 27 -21 0 21 -67 80 -99 86
-17 4 -31 11 -31 16 0 6 7 7 16 4 9 -3 22 -6 29 -6 8 0 31 -15 51 -32 l38 -33
-19 29 c-11 16 -37 37 -60 47 -31 14 -35 19 -17 19 31 0 77 -25 96 -52 9 -12
16 -18 16 -12 0 18 -47 63 -76 74 -38 15 -24 23 15 9 17 -6 43 -28 56 -47 31
-45 33 -32 3 15 -11 20 -35 41 -52 49 -28 12 -29 13 -7 14 13 0 37 -14 57 -34
19 -19 34 -31 34 -28 0 3 -14 21 -32 39 -18 18 -27 33 -22 33 6 0 14 -3 18 -7
4 -5 13 -8 19 -8 7 0 18 -13 26 -29 12 -26 11 -34 -9 -80 -41 -94 -39 -136 9
-161 18 -9 39 -35 55 -67 14 -28 26 -46 26 -40 0 24 -42 97 -71 124 -34 32
-36 55 -8 109 37 74 25 154 -28 178 -30 14 -52 14 -78 -1z m-352 -415 c-7 -2
-19 -2 -25 0 -7 3 -2 5 12 5 14 0 19 -2 13 -5z"/>
<path d="M4435 4455 c-5 -2 -22 -6 -37 -9 -14 -3 -39 -17 -55 -30 -15 -13 -45
-28 -64 -34 -20 -5 -46 -19 -56 -29 -11 -11 -38 -23 -60 -26 -22 -4 -46 -14
-53 -22 -11 -14 -9 -14 16 0 16 8 41 15 56 15 15 0 39 11 54 25 15 14 35 25
44 25 10 0 41 16 69 35 35 24 62 35 86 35 22 0 34 4 30 10 -6 10 -12 11 -30 5z"/>
<path d="M3658 4433 c-18 -21 -31 -43 -25 -43 2 0 13 14 25 30 25 33 24 41 0
13z"/>
<path d="M3900 4360 c-6 -11 -8 -20 -6 -20 3 0 10 9 16 20 6 11 8 20 6 20 -3
0 -10 -9 -16 -20z"/>
<path d="M3920 4349 c-12 -16 -21 -32 -18 -34 2 -2 13 12 26 31 28 42 21 45
-8 3z"/>
<path d="M4740 4319 c0 -5 5 -7 10 -4 6 3 10 8 10 11 0 2 -4 4 -10 4 -5 0 -10
-5 -10 -11z"/>
<path d="M4575 4310 c-3 -5 -1 -10 4 -10 6 0 11 5 11 10 0 6 -2 10 -4 10 -3 0
-8 -4 -11 -10z"/>
<path d="M4630 4310 c0 -5 5 -10 10 -10 6 0 10 5 10 10 0 6 -4 10 -10 10 -5 0
-10 -4 -10 -10z"/>
<path d="M4520 4300 c0 -5 5 -10 10 -10 6 0 10 5 10 10 0 6 -4 10 -10 10 -5 0
-10 -4 -10 -10z"/>
<path d="M4460 4290 c0 -5 5 -10 10 -10 6 0 10 5 10 10 0 6 -4 10 -10 10 -5 0
-10 -4 -10 -10z"/>
<path d="M3850 4258 c-9 -20 -9 -21 2 -7 7 9 20 18 28 22 12 4 12 6 -2 6 -10
1 -22 -9 -28 -21z"/>
<path d="M4340 4260 c0 -5 5 -10 10 -10 6 0 10 5 10 10 0 6 -4 10 -10 10 -5 0
-10 -4 -10 -10z"/>
<path d="M4290 4240 c0 -5 5 -10 10 -10 6 0 10 5 10 10 0 6 -4 10 -10 10 -5 0
-10 -4 -10 -10z"/>
<path d="M4190 4189 c0 -5 5 -7 10 -4 6 3 10 8 10 11 0 2 -4 4 -10 4 -5 0 -10
-5 -10 -11z"/>
<path d="M2862 4035 c-1 -16 -9 -43 -18 -60 -9 -16 -16 -49 -15 -71 1 -23 -6
-58 -14 -77 -25 -60 -17 -66 11 -7 18 39 24 64 19 87 -4 21 0 44 10 63 9 17
14 46 12 63 l-4 32 -1 -30z"/>
<path d="M3790 4040 c0 -11 -11 -27 -25 -36 -14 -9 -25 -24 -25 -34 0 -9 -11
-22 -25 -28 -15 -7 -33 -30 -45 -57 -11 -25 -22 -45 -25 -45 -3 0 -1 9 5 19 5
11 10 31 10 45 0 14 14 41 30 59 41 47 38 56 -5 13 -19 -19 -37 -47 -41 -63
-12 -57 -16 -64 -46 -79 -16 -8 -31 -14 -33 -12 -8 7 21 77 40 98 10 11 16 22
14 24 -5 5 -38 -40 -79 -106 -22 -36 -43 -54 -88 -77 -60 -30 -112 -80 -112
-107 0 -9 -4 -12 -10 -9 -21 13 -9 45 30 84 22 22 40 43 40 46 0 4 -22 -15
-50 -43 -27 -28 -50 -55 -50 -62 0 -6 -4 -8 -10 -5 -15 9 -12 41 5 55 8 7 15
17 15 22 0 5 -11 -4 -26 -21 -21 -25 -24 -36 -18 -67 6 -31 4 -36 -11 -32 -28
5 -41 55 -20 78 9 10 15 25 12 32 -4 10 -6 10 -6 -1 -1 -8 -9 -23 -18 -33 -10
-11 -16 -32 -15 -49 2 -28 1 -29 -40 -29 -126 0 -282 -83 -368 -195 -34 -44
-48 -55 -72 -55 -56 0 -87 -26 -123 -105 -35 -75 -45 -83 -142 -111 -7 -2 -24
-21 -38 -43 -14 -22 -35 -43 -48 -45 -12 -3 -31 -7 -42 -9 -11 -3 -6 -5 13 -6
33 -1 71 27 97 72 6 10 30 21 57 26 66 12 95 34 122 94 27 60 50 84 95 97 38
11 33 -3 -8 -19 -19 -8 -34 -26 -46 -54 -32 -77 -39 -89 -65 -107 -14 -10 -41
-23 -60 -28 -20 -6 -27 -10 -15 -11 53 -2 145 68 145 110 0 7 3 9 6 6 10 -9
-24 -92 -44 -110 -9 -8 -33 -20 -52 -25 -19 -6 -27 -11 -17 -11 31 -2 83 26
105 55 l22 29 -11 -33 c-14 -40 -50 -69 -105 -83 -23 -6 -55 -24 -70 -40 -15
-16 -35 -29 -44 -29 -9 0 -25 -7 -36 -14 -16 -13 -12 -13 26 0 25 8 53 24 63
36 10 12 37 24 64 29 60 12 66 5 11 -12 -35 -11 -45 -20 -52 -46 -6 -18 -17
-34 -25 -36 -13 -4 -13 -5 1 -6 10 0 25 10 34 24 9 14 35 34 58 45 22 11 61
33 86 48 l45 28 6 80 c12 168 102 298 258 374 270 133 590 -21 667 -321 15
-60 15 -194 -1 -219 -3 -5 -37 1 -76 12 -68 19 -73 19 -116 3 -56 -22 -94 -16
-163 26 -78 46 -154 51 -245 15 -69 -28 -120 -33 -216 -21 -81 10 -156 -21
-239 -100 -36 -34 -81 -72 -100 -85 -19 -13 -100 -85 -180 -160 -80 -76 -161
-145 -180 -155 -23 -12 -70 -20 -150 -25 -126 -7 -169 -21 -216 -68 -45 -44
-72 -109 -90 -213 -21 -123 -27 -136 -87 -193 l-52 -49 47 32 c69 46 96 87
123 190 30 110 54 160 94 194 42 35 79 44 199 51 147 8 177 24 337 180 72 70
153 143 180 161 28 18 73 56 100 85 82 85 107 94 265 95 120 0 141 3 185 24
74 35 116 31 211 -17 91 -48 130 -52 189 -22 34 17 51 20 107 14 l67 -6 -31
-61 c-39 -79 -124 -167 -197 -206 -147 -78 -296 -80 -443 -5 -58 29 -148 110
-180 161 -16 27 -25 33 -42 28 -11 -3 -28 -7 -36 -9 -16 -3 -17 -23 -4 -84 6
-31 2 -37 -46 -82 -44 -41 -50 -51 -41 -67 10 -16 11 -15 8 7 -1 18 5 28 25
37 41 21 78 70 78 106 l1 32 14 -25 c22 -38 18 -62 -16 -103 -17 -21 -29 -45
-26 -55 4 -14 5 -13 6 4 0 11 11 29 22 40 12 10 31 33 41 49 l20 30 -6 -33
c-3 -18 -15 -45 -27 -61 -17 -23 -19 -32 -10 -50 7 -11 14 -21 17 -21 2 0 0 9
-6 21 -10 17 -7 27 16 60 29 42 50 37 33 -8 -6 -17 -5 -31 5 -46 19 -29 6 -62
-32 -81 -34 -17 -48 -44 -32 -60 8 -8 9 -6 5 5 -4 10 0 22 7 28 7 6 28 22 46
37 33 26 42 60 21 81 -8 8 -8 17 1 33 l12 22 14 -23 c26 -46 27 -52 16 -83
-15 -41 -15 -63 -1 -72 8 -4 9 1 4 15 -4 13 0 36 9 56 9 18 13 41 10 52 -4 14
-1 13 15 -6 14 -15 19 -31 15 -46 -3 -13 -2 -25 3 -28 5 -3 8 15 8 39 0 49 7
55 23 22 8 -18 11 -19 11 -6 1 26 14 28 67 11 29 -9 89 -16 147 -17 53 0 97
-3 97 -6 0 -3 -9 -20 -20 -38 -14 -22 -39 -41 -74 -57 -47 -21 -75 -49 -62
-62 2 -3 7 5 11 16 6 21 16 25 76 35 38 7 65 30 86 74 l13 27 -5 -30 c-3 -17
-21 -44 -43 -64 l-37 -33 45 23 c35 19 47 32 56 64 l12 40 1 -39 c1 -24 -6
-48 -16 -60 -18 -21 -18 -21 4 -2 12 10 26 37 32 60 5 22 9 31 10 19 1 -12 6
-25 12 -28 6 -4 14 -17 19 -29 7 -16 9 -17 9 -4 1 9 -3 20 -9 23 -13 8 -13 76
0 95 8 11 9 9 5 -11 -5 -19 0 -34 19 -55 14 -16 26 -24 26 -17 0 7 -7 16 -17
21 -28 16 -11 81 33 120 21 17 40 29 43 26 3 -3 6 -29 6 -56 0 -37 4 -52 15
-55 13 -4 13 -3 0 6 -12 8 -12 15 -2 44 7 18 12 44 12 58 1 21 2 22 11 7 5
-10 17 -18 25 -18 11 0 13 -6 9 -21 -5 -15 -4 -19 4 -15 15 10 14 33 -3 43 -7
4 -16 18 -20 29 -5 18 -1 22 25 28 20 4 38 1 48 -6 14 -12 15 -11 2 5 -10 12
-22 16 -38 12 -13 -3 -23 -1 -23 5 0 5 15 10 34 10 19 0 42 8 53 18 10 9 14
14 9 10 -6 -5 -26 -7 -45 -7 -28 1 -30 3 -11 6 14 3 36 15 50 28 14 12 32 25
40 28 13 5 12 6 -1 6 -9 1 -28 -8 -42 -19 -28 -22 -52 -26 -44 -7 63 143 62
137 62 262 -1 97 -5 130 -22 172 l-20 51 31 5 c17 3 38 -1 46 -8 8 -6 22 -15
30 -19 8 -4 2 3 -14 16 -17 13 -44 26 -60 29 l-31 5 35 12 35 12 -37 -6 c-44
-6 -47 0 -16 33 16 17 18 22 6 18 -9 -4 -19 -13 -22 -21 -3 -8 -10 -14 -16
-14 -5 0 -1 16 10 35 11 19 15 35 10 35 -24 0 -7 32 25 46 33 13 49 28 23 20
-7 -3 -26 -7 -41 -10 -21 -5 -33 -18 -48 -53 l-19 -46 -53 49 c-28 27 -48 51
-44 53 4 1 0 10 -10 17 -14 12 -11 12 14 -1 35 -16 79 -20 87 -6 3 4 -5 6 -17
4 -12 -2 -42 5 -67 17 l-45 21 40 -5 c31 -4 36 -3 22 5 -10 6 -33 11 -52 12
-27 2 -31 5 -22 16 8 9 27 12 62 9 l50 -5 -35 15 c-27 11 -44 12 -74 4 -38
-10 -38 -10 -19 10 24 23 84 41 135 40 20 -1 39 2 42 6 5 9 -94 8 -144 -2
l-35 -7 35 20 c19 11 79 34 133 51 89 28 100 34 122 69 13 22 30 41 37 44 9 4
9 6 1 6 -7 1 -18 -6 -25 -15 -49 -62 -65 -71 -131 -83 -37 -6 -75 -14 -84 -18
-13 -4 -15 -3 -7 6 5 6 41 18 80 26 49 10 75 21 89 38 11 13 28 34 37 46 12
14 29 21 52 21 37 0 66 28 66 63 0 10 12 30 28 45 26 25 26 25 2 10 -14 -8
-29 -28 -35 -44 -16 -48 -24 -54 -66 -54 -29 0 -47 -7 -64 -25 -19 -18 -25
-20 -25 -9 0 9 14 29 30 44 17 15 30 34 30 42 0 8 11 25 24 37 25 24 41 61 25
61 -5 0 -9 -9 -9 -20z"/>
<path d="M3975 3973 c-57 -72 -125 -204 -161 -308 -37 -110 -37 -210 0 -319
14 -43 27 -88 27 -100 1 -18 2 -18 6 -3 3 10 -5 58 -17 105 -53 205 5 427 165
636 19 25 33 46 30 46 -3 0 -25 -26 -50 -57z"/>
<path d="M3298 3893 c6 -2 18 -2 25 0 6 3 1 5 -13 5 -14 0 -19 -2 -12 -5z"/>
<path d="M2692 3760 c0 -14 2 -19 5 -12 2 6 2 18 0 25 -3 6 -5 1 -5 -13z"/>
<path d="M3028 3663 c7 -3 16 -2 19 1 4 3 -2 6 -13 5 -11 0 -14 -3 -6 -6z"/>
<path d="M2510 3564 c0 -10 5 -26 10 -34 8 -11 9 -7 4 15 -8 37 -14 45 -14 19z"/>
<path d="M3550 3510 c19 -11 40 -19 45 -19 6 0 -6 8 -25 19 -19 11 -39 19 -45
19 -5 0 6 -8 25 -19z"/>
<path d="M2220 3341 c0 -17 9 -48 21 -69 20 -34 21 -22 3 22 -5 13 -4 17 3 13
7 -4 8 4 4 25 -9 43 -31 49 -31 9z m17 -18 c-3 -10 -5 -4 -5 12 0 17 2 24 5
18 2 -7 2 -21 0 -30z"/>
<path d="M2188 3254 c10 -20 42 -52 42 -42 0 3 -12 18 -26 34 -17 19 -22 22
-16 8z"/>
<path d="M2360 3250 c0 -5 5 -10 10 -10 6 0 10 5 10 10 0 6 -4 10 -10 10 -5 0
-10 -4 -10 -10z"/>
<path d="M2350 3209 c0 -5 5 -7 10 -4 6 3 10 8 10 11 0 2 -4 4 -10 4 -5 0 -10
-5 -10 -11z"/>
<path d="M3831 3204 c0 -11 3 -14 6 -6 3 7 2 16 -1 19 -3 4 -6 -2 -5 -13z"/>
<path d="M2330 3169 c0 -5 5 -7 10 -4 6 3 10 8 10 11 0 2 -4 4 -10 4 -5 0 -10
-5 -10 -11z"/>
<path d="M3807 3147 l-17 -32 20 24 c17 20 26 41 18 41 -2 0 -11 -15 -21 -33z"/>
<path d="M2275 3120 c3 -5 8 -10 11 -10 2 0 4 5 4 10 0 6 -5 10 -11 10 -5 0
-7 -4 -4 -10z"/>
<path d="M2454 3098 c-19 -23 -19 -23 1 -7 11 9 27 19 35 22 13 5 13 6 -1 6
-9 1 -24 -9 -35 -21z"/>
<path d="M3984 3059 c2 -45 11 -80 26 -107 26 -46 97 -103 154 -123 21 -8 47
-25 57 -38 11 -13 19 -19 19 -13 0 11 -57 62 -70 62 -17 0 -111 82 -135 119
-14 21 -32 67 -40 102 l-15 64 4 -66z"/>
<path d="M2489 3063 l-24 -28 25 21 c14 12 32 24 40 27 13 5 13 6 -1 6 -8 1
-26 -11 -40 -26z"/>
<path d="M4010 3070 c0 -50 46 -128 96 -162 26 -18 68 -48 93 -66 l46 -33 -49
43 c-120 104 -137 124 -161 183 -17 42 -25 52 -25 35z"/>
<path d="M4438 3063 c6 -2 18 -2 25 0 6 3 1 5 -13 5 -14 0 -19 -2 -12 -5z"/>
<path d="M4050 3056 c0 -24 33 -76 67 -106 77 -67 123 -101 117 -88 -3 7 -33
33 -67 58 -41 30 -69 60 -84 89 -23 45 -33 60 -33 47z"/>
<path d="M4090 3033 c0 -20 49 -71 100 -102 68 -42 63 -30 -5 14 -30 19 -64
50 -75 67 -11 18 -20 28 -20 21z"/>
<path d="M4205 3030 c-3 -5 -1 -10 4 -10 6 0 11 5 11 10 0 6 -2 10 -4 10 -3 0
-8 -4 -11 -10z"/>
<path d="M4330 3010 c0 -5 5 -10 11 -10 5 0 7 5 4 10 -3 6 -8 10 -11 10 -2 0
-4 -4 -4 -10z"/>
<path d="M4418 3013 c7 -3 16 -2 19 1 4 3 -2 6 -13 5 -11 0 -14 -3 -6 -6z"/>
<path d="M2287 2993 c-4 -3 -7 -11 -7 -17 0 -6 5 -5 12 2 6 6 9 14 7 17 -3 3
-9 2 -12 -2z"/>
<path d="M2322 2960 c-24 -31 -28 -45 -12 -35 10 6 44 65 37 65 -2 0 -13 -13
-25 -30z"/>
<path d="M3931 2966 c-1 -10 17 -36 38 -57 28 -26 42 -50 46 -76 9 -53 19 -74
59 -128 33 -43 36 -52 36 -116 l0 -70 50 -48 c59 -57 62 -78 20 -140 -17 -24
-30 -50 -30 -56 0 -7 -7 -18 -15 -25 -10 -8 -14 -29 -12 -70 1 -32 5 -53 9
-46 5 6 5 29 2 51 -4 32 -1 45 15 64 12 13 21 29 21 36 0 6 11 26 25 45 40 55
34 95 -22 148 l-48 44 3 78 c3 76 2 78 -34 126 -20 26 -43 71 -50 98 -10 38
-24 61 -57 91 -24 22 -46 47 -50 55 -4 11 -6 10 -6 -4z"/>
<path d="M2357 2910 c-16 -16 -24 -30 -19 -30 6 0 20 14 32 30 12 17 20 30 18
30 -2 0 -16 -13 -31 -30z"/>
<path d="M2740 2909 c0 -5 -3 -8 -8 -5 -4 2 -22 -8 -40 -22 -31 -26 -32 -29
-20 -59 10 -28 10 -35 -7 -55 -17 -19 -17 -20 -2 -9 29 23 38 47 28 74 -8 20
-5 29 15 48 13 12 24 17 24 11 0 -9 6 -9 25 0 13 6 22 15 19 19 -7 13 -34 11
-34 -2z"/>
<path d="M3900 2883 c0 -9 -20 -36 -44 -59 -60 -57 -65 -88 -16 -105 32 -12
36 -20 20 -50 -8 -13 -17 -18 -33 -14 -17 5 -32 -2 -55 -25 -37 -35 -40 -57
-12 -92 l19 -25 -24 -11 c-30 -14 -32 -42 -8 -83 16 -27 16 -31 0 -64 -21 -44
-22 -75 -2 -101 18 -24 19 -65 3 -84 -11 -12 -10 -12 5 0 19 14 19 20 1 108
-5 24 0 44 17 76 22 42 22 45 6 70 -20 30 -22 56 -4 57 86 8 127 7 134 -4 4
-7 10 -30 14 -52 l6 -40 2 36 c1 45 -31 89 -64 89 -38 0 -70 16 -89 44 -16 25
-16 27 6 57 17 22 29 29 46 26 16 -3 29 3 42 21 30 38 28 45 -25 90 -14 12
-12 18 19 56 32 39 57 96 42 96 -3 0 -6 -8 -6 -17z"/>
<path d="M2581 2766 c-7 -6 -28 -25 -45 -42 -32 -32 -76 -60 -87 -57 -18 5 13
-71 43 -109 20 -24 41 -54 47 -66 7 -13 15 -22 17 -19 3 3 -9 26 -26 53 l-30
49 30 28 c16 15 30 32 30 37 0 4 -14 -5 -31 -21 -35 -32 -49 -36 -49 -14 0 9
16 25 35 36 19 12 35 26 35 32 0 5 -8 3 -17 -5 -10 -8 -27 -18 -38 -22 -21 -7
-24 -11 71 87 34 36 45 58 15 33z"/>
<path d="M3011 2610 c14 -31 19 -36 19 -24 0 6 -7 19 -16 30 -14 18 -14 18 -3
-6z"/>
<path d="M3656 2612 c-2 -4 -7 -25 -11 -47 -12 -64 -31 -92 -95 -135 -81 -55
-109 -95 -120 -170 -9 -63 -16 -76 -62 -122 -16 -15 -28 -36 -27 -50 1 -20 2
-21 6 -3 3 11 25 41 48 66 28 30 49 65 59 99 22 73 49 113 105 155 63 45 78
69 94 149 13 63 14 75 3 58z"/>
<path d="M2562 2592 c-34 -5 -38 -30 -9 -60 14 -15 30 -45 36 -67 9 -30 30
-56 83 -105 113 -103 128 -121 173 -200 36 -63 53 -82 110 -121 38 -26 74 -57
81 -70 7 -13 13 -18 14 -10 0 13 -22 36 -108 114 -26 23 -57 67 -79 114 -26
52 -51 87 -82 112 -86 71 -158 147 -169 181 -7 19 -24 47 -39 62 -21 22 -23
28 -10 28 8 0 19 5 22 11 9 14 5 16 -23 11z"/>
<path d="M2980 2583 c0 -6 8 -17 18 -24 16 -13 16 -13 2 6 -8 11 -16 22 -17
24 -2 2 -3 0 -3 -6z"/>
<path d="M3035 2498 c-21 -19 -29 -37 -30 -60 0 -32 -1 -33 -45 -33 -25 0 -51
-4 -58 -9 -19 -12 -27 1 -12 19 15 18 6 45 -15 45 -8 0 -15 5 -15 10 0 6 -10
10 -21 10 -19 0 -20 -4 -15 -35 7 -37 -7 -48 -32 -23 -9 9 -12 9 -12 1 0 -15
36 -27 51 -17 6 3 9 19 5 35 -6 34 -3 36 22 11 14 -14 16 -22 8 -35 -14 -23 5
-53 30 -48 11 1 41 4 67 5 55 1 69 16 61 63 -5 27 -1 36 22 57 16 13 27 26 24
28 -3 2 -18 -9 -35 -24z"/>
<path d="M3672 2497 c-8 -23 -38 -58 -77 -93 -75 -66 -93 -101 -75 -143 9 -23
9 -33 -1 -50 -11 -16 -11 -27 -1 -55 11 -30 11 -40 -2 -65 -9 -16 -21 -33 -27
-36 -20 -13 -27 -49 -14 -80 10 -26 9 -35 -6 -64 -13 -24 -15 -39 -9 -52 6
-10 7 -25 4 -33 -8 -22 13 -46 41 -46 30 0 55 -30 55 -69 0 -24 6 -34 25 -43
13 -6 28 -20 31 -32 9 -29 23 -36 49 -24 17 8 32 5 63 -11 25 -13 43 -17 47
-11 3 6 -2 10 -12 10 -10 0 -27 7 -38 16 -14 10 -31 13 -57 9 -34 -6 -38 -4
-38 14 0 11 -11 28 -25 37 -17 11 -25 25 -25 46 0 43 -15 65 -54 78 -28 9 -34
17 -39 47 -4 23 -1 46 9 65 12 24 13 35 3 63 -12 32 -11 37 13 62 14 16 33 43
43 62 14 29 15 37 4 58 -10 19 -10 31 -1 55 7 20 8 37 2 49 -19 34 -9 60 44
118 59 64 89 113 84 138 -2 9 -9 0 -16 -20z"/>
<path d="M3807 2425 c15 -31 15 -40 4 -68 -29 -70 -26 -82 23 -130 35 -35 46
-52 46 -76 0 -28 5 -34 45 -51 38 -16 45 -24 45 -48 0 -28 15 -52 34 -52 5 0
2 6 -6 13 -9 6 -18 25 -20 42 -2 22 -13 36 -40 54 -27 17 -38 32 -43 60 -4 20
-21 54 -39 76 -47 58 -48 61 -35 104 9 32 9 46 -1 71 -7 17 -17 33 -21 36 -5
3 -2 -11 8 -31z"/>
<path d="M3236 2433 c-6 -14 -5 -15 5 -6 7 7 10 15 7 18 -3 3 -9 -2 -12 -12z"/>
<path d="M3056 2406 c-20 -32 -21 -60 -1 -76 13 -11 12 -15 -11 -27 -31 -15
-42 -10 -25 11 15 18 5 40 -15 32 -8 -3 -23 0 -34 6 -14 9 -22 9 -34 -1 -20
-17 -20 -30 1 -53 13 -14 14 -21 5 -30 -18 -18 -15 -41 8 -61 30 -26 37 -21
10 8 -23 24 -23 25 -5 45 17 19 17 21 2 38 -17 19 -23 42 -11 42 4 0 12 -8 19
-17 10 -14 16 -15 28 -5 12 10 14 8 10 -12 -6 -27 13 -44 30 -27 6 6 19 11 29
11 28 0 33 28 9 51 -25 24 -26 28 -5 57 9 13 14 25 11 28 -2 3 -12 -7 -21 -20z"/>
<path d="M3090 2360 c0 -5 11 -17 25 -28 32 -25 32 -42 0 -42 -14 0 -37 -11
-51 -25 -19 -19 -31 -23 -57 -19 l-32 5 35 -16 c34 -16 35 -16 55 9 13 16 31
26 47 26 14 0 31 7 38 15 11 13 7 21 -23 49 -21 19 -37 30 -37 26z"/>
<path d="M3182 2338 c-7 -7 -12 -24 -12 -39 0 -22 -6 -30 -34 -39 -31 -10 -74
-55 -63 -66 2 -3 11 6 20 20 9 13 32 29 52 36 30 10 35 16 35 44 0 17 5 37 12
44 7 7 10 12 7 12 -3 0 -10 -5 -17 -12z"/>
<path d="M3276 2301 c-3 -4 -19 -11 -35 -14 -16 -4 -32 -14 -35 -25 -3 -10
-22 -24 -41 -31 -41 -15 -75 -54 -75 -89 0 -21 -3 -24 -27 -19 -25 5 -26 4 -9
-8 26 -19 43 -9 50 29 7 37 26 57 72 75 17 7 36 23 42 37 7 13 20 24 31 24 10
0 24 7 31 15 7 8 10 15 7 15 -3 0 -8 -4 -11 -9z"/>
<path d="M3230 2236 c0 -10 -14 -23 -35 -32 -47 -19 -77 -68 -63 -100 9 -19 8
-28 -8 -46 l-19 -23 23 19 c17 15 21 26 17 48 -10 43 3 66 46 89 39 19 58 43
45 56 -3 4 -6 -1 -6 -11z"/>
<path d="M3475 2210 c-3 -11 -27 -44 -51 -72 -66 -77 -77 -101 -69 -158 4 -32
2 -55 -6 -69 -10 -16 -11 -27 -3 -49 9 -22 8 -35 -2 -53 -7 -13 -13 -30 -14
-36 0 -23 36 -50 77 -56 45 -7 57 -19 67 -59 3 -15 16 -33 29 -39 l22 -12 -22
25 c-13 13 -23 31 -23 39 0 28 -31 58 -65 65 -49 9 -58 24 -38 64 15 30 15 36
1 60 -13 23 -13 31 -2 51 9 16 11 40 7 71 -5 45 -2 52 51 134 31 48 56 93 56
100 0 20 -8 17 -15 -6z"/>
<path d="M3200 2150 c-11 -11 -20 -26 -20 -33 0 -22 30 -57 49 -57 24 0 45 25
37 45 -6 18 -32 20 -42 3 -5 -8 -2 -9 9 -5 19 7 23 -8 6 -19 -6 -3 -18 1 -27
10 -16 16 -15 19 7 37 21 17 26 18 45 6 12 -8 22 -27 24 -45 4 -39 -24 -56
-76 -48 -41 7 -54 1 -71 -31 -6 -13 -18 -23 -26 -23 -9 0 -15 -10 -15 -24 0
-13 -7 -26 -15 -30 -19 -7 -19 -37 0 -62 14 -18 14 -17 5 9 -13 36 -13 37 5
37 9 0 15 9 15 25 0 15 6 25 14 25 8 0 22 10 31 23 13 18 25 22 71 22 47 0 59
4 75 24 26 32 24 77 -6 106 -29 30 -68 32 -95 5z"/>
<path d="M3490 2153 c0 -6 -18 -37 -41 -69 -37 -54 -40 -63 -35 -107 4 -35 1
-56 -10 -73 -11 -15 -13 -30 -8 -41 5 -10 9 -38 9 -63 0 -42 2 -45 35 -55 51
-15 58 -22 70 -65 7 -28 16 -40 32 -42 12 -2 29 -16 38 -32 9 -16 22 -31 30
-33 9 -3 8 0 -2 7 -10 6 -18 17 -18 25 0 8 -13 24 -30 37 -16 12 -30 31 -30
42 0 37 -36 84 -67 88 -26 3 -28 6 -25 44 2 23 -1 45 -7 49 -7 4 -6 16 5 38
14 26 15 37 5 64 -11 31 -9 40 25 109 20 41 34 77 30 81 -3 3 -6 2 -6 -4z"/>
<path d="M2910 2129 c0 -5 5 -7 10 -4 6 3 10 8 10 11 0 2 -4 4 -10 4 -5 0 -10
-5 -10 -11z"/>
<path d="M2940 2100 c0 -5 5 -10 11 -10 5 0 7 5 4 10 -3 6 -8 10 -11 10 -2 0
-4 -4 -4 -10z"/>
<path d="M4121 1833 c7 -12 15 -20 18 -17 3 2 -3 12 -13 22 -17 16 -18 16 -5
-5z"/>
</g>
</svg>
