<?xml version="1.0" standalone="no"?>
<!DOCTYPE svg PUBLIC "-//W3C//DTD SVG 20010904//EN"
 "http://www.w3.org/TR/2001/REC-SVG-20010904/DTD/svg10.dtd">

            <svg version="1.0" xmlns="http://www.w3.org/2000/svg"
                    width="200" height="100" viewBox="0 0 1823.000000 1146.000000"
                    preserveAspectRatio="xMidYMid meet">
                    <g transform="translate(0.000000,1146.000000) scale(0.100000,-0.100000)"
                    fill="white" stroke="none">
                    <path d="M7390 10585 c-14 -8 -34 -18 -45 -23 -11 -6 -44 -36 -74 -68 -30 -33
                    -125 -133 -211 -224 -86 -91 -182 -193 -215 -227 -32 -35 -64 -63 -71 -63 -8
                    0 -20 -13 -28 -29 -8 -15 -32 -43 -53 -61 -21 -18 -90 -82 -153 -141 -146
                    -136 -165 -153 -220 -198 -25 -20 -63 -52 -85 -73 -50 -45 -232 -187 -325
                    -253 -38 -27 -80 -57 -91 -65 -12 -8 -29 -23 -37 -32 -9 -10 -20 -18 -23 -18
                    -7 0 -154 -95 -194 -125 -10 -8 -23 -15 -27 -15 -4 0 -29 -15 -56 -34 -26 -19
                    -70 -46 -97 -61 -28 -14 -63 -35 -80 -45 -16 -11 -41 -24 -54 -30 -13 -6 -44
                    -24 -68 -40 -24 -17 -47 -30 -51 -30 -4 0 -32 -13 -62 -30 -30 -16 -62 -32
                    -70 -36 -8 -3 -22 -10 -30 -15 -8 -5 -26 -14 -40 -19 -14 -6 -32 -15 -40 -20
                    -8 -6 -22 -13 -30 -16 -8 -3 -22 -10 -30 -15 -8 -5 -26 -14 -40 -19 -35 -14
                    -92 -41 -110 -52 -8 -4 -22 -11 -30 -14 -8 -3 -35 -15 -60 -26 -25 -11 -58
                    -26 -75 -33 -16 -7 -51 -22 -76 -34 -25 -12 -53 -21 -61 -21 -9 0 -21 -7 -28
                    -15 -7 -8 -22 -15 -34 -15 -12 0 -31 -7 -42 -15 -10 -8 -28 -15 -39 -15 -11 0
                    -33 -9 -50 -20 -16 -11 -39 -20 -51 -20 -11 0 -29 -7 -40 -15 -10 -8 -28 -15
                    -39 -15 -11 0 -37 -9 -58 -20 -20 -11 -44 -20 -53 -20 -9 0 -28 -7 -42 -15
                    -15 -7 -63 -26 -107 -40 -44 -15 -84 -31 -90 -36 -5 -5 -18 -9 -30 -9 -11 -1
                    -38 -9 -60 -20 -22 -11 -49 -20 -60 -20 -11 0 -29 -7 -39 -15 -11 -8 -32 -15
                    -46 -15 -14 0 -43 -9 -65 -20 -22 -11 -48 -20 -60 -20 -11 0 -29 -7 -39 -15
                    -11 -8 -34 -15 -52 -15 -17 0 -37 -6 -43 -14 -6 -7 -30 -16 -52 -20 -23 -4
                    -51 -13 -62 -21 -12 -8 -32 -15 -45 -15 -13 0 -38 -6 -55 -13 -57 -24 -162
                    -57 -180 -57 -11 0 -31 -6 -45 -14 -15 -7 -61 -23 -102 -36 -41 -12 -90 -29
                    -108 -36 -18 -8 -44 -14 -57 -14 -14 0 -42 -9 -62 -20 -21 -11 -49 -20 -63
                    -20 -15 0 -35 -7 -46 -15 -10 -8 -31 -15 -45 -15 -15 0 -46 -9 -70 -20 -24
                    -11 -55 -20 -69 -20 -14 0 -34 -7 -44 -15 -11 -8 -30 -15 -43 -15 -13 0 -36
                    -6 -51 -14 -15 -8 -46 -18 -67 -22 -22 -4 -49 -13 -60 -20 -11 -8 -32 -14 -47
                    -14 -16 0 -45 -9 -65 -20 -21 -11 -47 -20 -58 -20 -11 -1 -31 -7 -45 -15 -14
                    -8 -37 -14 -51 -15 -14 0 -34 -7 -45 -15 -10 -8 -28 -15 -39 -15 -11 0 -33 -7
                    -50 -16 -33 -17 -91 -40 -145 -56 -19 -5 -53 -22 -75 -37 -22 -15 -54 -33 -72
                    -40 -63 -26 -104 -111 -68 -141 8 -7 15 -23 15 -36 0 -37 41 -93 69 -94 14 0
                    32 -6 40 -14 10 -10 52 -17 116 -21 55 -4 120 -12 145 -18 65 -16 1355 -15
                    1630 1 118 6 314 14 435 16 l220 5 28 31 c35 40 35 78 -1 113 l-28 27 -175 0
                    c-95 -1 -237 -5 -314 -10 -295 -19 -1240 -32 -1520 -21 -250 10 -414 26 -430
                    43 -11 10 124 69 195 85 14 4 34 12 45 19 11 6 39 15 62 19 23 4 47 13 54 21
                    6 8 23 14 38 14 15 0 35 6 46 14 11 7 38 16 60 20 21 4 52 14 67 22 15 8 39
                    14 53 14 15 0 39 6 53 14 15 8 61 24 102 36 41 12 93 29 115 36 23 8 47 14 54
                    14 7 0 27 7 44 15 30 14 90 33 181 56 21 5 51 16 67 24 15 8 39 15 53 15 13 0
                    37 7 53 15 15 7 62 24 103 36 41 11 90 27 108 35 18 8 45 14 61 14 16 0 34 6
                    40 14 6 7 30 16 52 20 23 4 54 13 70 21 15 8 39 15 52 15 13 0 32 7 43 15 10
                    8 30 15 44 15 14 0 42 9 63 20 20 11 46 20 58 20 11 0 33 6 47 14 37 18 121
                    47 157 53 17 3 36 11 44 17 8 6 32 16 55 22 23 7 57 17 76 24 19 7 60 22 90
                    33 30 11 69 25 85 32 53 22 99 37 130 43 17 2 41 13 54 23 13 11 33 19 45 19
                    12 0 31 7 42 15 10 8 27 15 37 15 9 0 34 9 54 20 21 11 45 20 54 20 9 0 22 7
                    29 15 7 8 24 15 38 15 14 0 33 6 41 13 9 7 49 26 89 42 40 16 75 32 78 37 3 4
                    13 8 22 8 9 0 42 13 72 29 90 48 143 72 173 78 15 3 29 9 32 13 4 6 74 42 125
                    64 8 3 29 15 45 26 17 11 44 27 60 35 17 8 39 20 50 27 23 13 28 16 105 55 30
                    15 77 43 105 61 27 17 53 32 57 32 8 0 101 62 129 86 8 8 22 14 29 14 7 0 22
                    7 32 17 10 9 27 21 37 27 46 26 146 94 191 129 26 20 51 37 54 37 21 0 452
                    348 616 498 112 102 493 481 661 658 250 263 271 295 244 360 -8 19 -18 34
                    -24 34 -5 0 -15 2 -23 5 -7 3 -24 -2 -38 -10z"/>
                    <path d="M8416 10549 c-9 -13 -16 -34 -16 -47 0 -31 48 -91 102 -128 24 -16
                    48 -32 53 -36 6 -5 62 -42 125 -85 208 -138 274 -184 280 -192 3 -4 17 -14 32
                    -22 24 -12 139 -89 431 -288 48 -33 95 -67 103 -76 9 -8 20 -15 25 -15 8 0 65
                    -36 79 -50 11 -11 69 -50 75 -50 3 0 28 -16 55 -35 28 -19 72 -51 100 -70 27
                    -19 54 -35 59 -35 5 0 11 -7 15 -15 3 -8 12 -15 20 -15 8 0 21 -6 28 -13 7 -7
                    65 -47 129 -90 64 -42 122 -84 129 -92 7 -8 18 -15 25 -15 7 0 33 -16 58 -35
                    25 -19 48 -35 51 -35 11 0 265 -170 294 -197 7 -7 18 -13 23 -13 8 0 65 -36
                    79 -50 11 -11 69 -50 75 -50 3 0 29 -17 58 -37 91 -64 100 -70 177 -118 109
                    -69 153 -98 168 -112 7 -7 17 -13 22 -13 5 0 42 -22 82 -49 91 -60 326 -213
                    410 -265 35 -22 95 -60 133 -85 81 -53 104 -67 125 -77 8 -4 36 -23 62 -41 26
                    -18 52 -33 56 -33 5 0 29 -15 53 -33 24 -18 51 -37 59 -40 8 -4 29 -16 45 -27
                    17 -11 45 -27 63 -37 17 -9 32 -20 32 -24 0 -4 12 -12 28 -18 15 -6 39 -19 54
                    -29 14 -9 63 -39 107 -65 45 -27 83 -53 86 -57 3 -5 29 -21 58 -35 28 -15 68
                    -36 89 -48 20 -12 74 -44 120 -72 45 -27 101 -62 122 -77 21 -15 44 -28 50
                    -28 10 0 53 -25 132 -78 10 -6 30 -18 44 -24 29 -14 237 -133 260 -148 8 -6
                    29 -17 45 -25 17 -9 37 -20 45 -25 35 -22 270 -150 276 -150 4 0 15 -6 23 -14
                    18 -16 110 -65 346 -185 88 -44 171 -87 185 -95 14 -8 43 -23 65 -32 22 -10
                    47 -23 55 -30 9 -8 36 -21 60 -29 25 -9 61 -26 80 -39 19 -13 46 -27 60 -31
                    14 -4 68 -27 120 -52 52 -24 113 -53 135 -63 22 -10 89 -41 148 -69 60 -28
                    114 -51 120 -51 7 0 26 -9 42 -20 17 -11 36 -20 42 -20 7 0 40 -13 73 -29 33
                    -16 74 -32 90 -36 16 -3 34 -13 41 -21 6 -8 20 -14 31 -14 11 0 32 -6 46 -14
                    63 -34 114 -56 126 -56 7 0 40 -13 72 -30 32 -16 75 -33 94 -36 19 -4 42 -12
                    50 -19 8 -8 28 -17 44 -21 16 -4 41 -13 55 -20 14 -8 33 -14 42 -14 9 0 22 -7
                    29 -15 7 -8 26 -15 42 -15 16 0 59 -14 96 -31 37 -18 81 -36 97 -40 48 -13
                    127 -39 163 -55 18 -8 40 -14 49 -14 8 0 30 -9 47 -19 17 -11 128 -51 246 -90
                    118 -39 227 -78 242 -86 14 -8 34 -15 43 -15 22 0 222 -67 257 -85 14 -8 34
                    -15 45 -15 10 0 32 -9 48 -20 17 -11 39 -20 50 -20 24 -1 82 -46 72 -56 -4 -4
                    -58 -11 -119 -15 -62 -5 -147 -13 -188 -18 -41 -5 -176 -10 -300 -11 -124 -1
                    -336 -5 -471 -9 -211 -7 -251 -10 -285 -27 -73 -36 -72 -114 1 -141 49 -18
                    -19 -17 525 -4 257 7 522 18 592 26 70 8 154 15 188 15 33 0 77 7 97 15 19 8
                    53 15 74 15 29 0 45 7 64 28 64 67 86 190 43 229 -31 27 -92 63 -108 63 -8 0
                    -21 6 -29 14 -9 7 -52 26 -96 41 -44 15 -84 31 -89 36 -6 5 -21 9 -34 9 -12 0
                    -40 9 -60 19 -58 30 -111 51 -128 51 -9 0 -30 6 -47 14 -32 14 -104 39 -162
                    56 -41 12 -123 39 -165 54 -76 28 -106 38 -136 46 -18 4 -42 15 -55 24 -13 9
                    -36 16 -52 16 -15 0 -54 13 -87 30 -32 16 -76 34 -97 39 -49 12 -215 71 -228
                    81 -5 5 -48 21 -95 36 -47 15 -91 33 -99 38 -14 11 -64 31 -120 48 -19 5 -44
                    16 -55 23 -12 7 -52 23 -91 36 -38 12 -77 28 -86 36 -8 7 -21 13 -27 13 -14 0
                    -68 22 -247 104 -45 20 -88 36 -97 36 -8 0 -21 7 -28 15 -7 8 -19 15 -27 15
                    -8 0 -48 16 -89 35 -41 19 -78 35 -83 35 -5 0 -14 6 -20 14 -7 8 -27 17 -45
                    20 -19 4 -39 13 -46 21 -7 8 -23 15 -35 15 -12 0 -28 6 -34 14 -7 8 -25 18
                    -41 21 -16 3 -34 13 -41 21 -6 8 -17 14 -24 14 -9 0 -534 260 -605 299 -8 5
                    -40 21 -70 36 -50 24 -84 43 -205 111 -22 13 -67 37 -100 54 -95 49 -167 90
                    -211 119 -22 15 -65 40 -95 55 -30 15 -72 38 -94 51 -22 13 -51 29 -64 35 -13
                    6 -44 24 -68 40 -24 17 -46 30 -49 30 -2 0 -63 35 -135 78 -72 42 -154 90
                    -182 106 -29 15 -59 34 -68 42 -8 8 -19 14 -23 14 -4 0 -30 16 -59 35 -28 19
                    -55 35 -59 35 -5 0 -31 16 -58 35 -27 19 -52 35 -54 35 -2 0 -28 16 -57 35
                    -30 19 -57 35 -62 35 -5 0 -26 13 -46 28 -20 16 -63 43 -96 61 -33 18 -74 44
                    -92 57 -17 13 -34 24 -37 24 -4 0 -28 15 -54 33 -26 18 -58 38 -72 45 -14 7
                    -37 20 -52 30 -14 9 -48 30 -75 46 -26 16 -50 32 -53 35 -7 9 -75 53 -155 101
                    -131 78 -179 109 -207 134 -15 13 -35 26 -43 30 -21 8 -125 76 -143 93 -7 7
                    -18 13 -23 13 -6 0 -31 16 -56 35 -25 19 -50 35 -55 35 -6 0 -27 14 -48 30
                    -21 17 -41 30 -44 30 -3 0 -42 25 -87 55 -45 30 -83 55 -85 55 -2 0 -28 17
                    -57 37 -81 57 -81 57 -447 299 -190 126 -349 232 -355 237 -8 6 -97 64 -188
                    122 -74 47 -217 149 -217 154 0 4 -12 12 -27 18 -31 13 -28 12 -152 96 -47 33
                    -117 80 -156 105 -38 25 -73 50 -76 55 -3 4 -20 16 -38 25 -31 17 -261 171
                    -271 182 -3 3 -59 41 -125 85 -66 44 -124 86 -128 92 -4 7 -14 13 -21 13 -7 0
                    -22 8 -34 18 -11 9 -40 29 -64 44 -23 15 -70 46 -103 69 -46 32 -72 43 -111
                    47 -45 4 -53 1 -68 -19z"/>
                    <path d="M7934 10180 c-11 -4 -28 -25 -37 -46 -16 -37 -17 -294 -15 -4397 l3
                    -4359 33 -29 c45 -40 73 -32 115 33 16 26 17 264 17 4371 0 4339 0 4343 -20
                    4385 -11 23 -27 42 -34 42 -8 0 -20 2 -28 4 -7 3 -22 1 -34 -4z"/>
                    <path d="M8756 8949 c-14 -11 -26 -28 -26 -37 0 -9 -7 -37 -16 -61 -8 -25 -13
                    -60 -10 -80 3 -20 8 -427 11 -906 3 -478 7 -1117 10 -1420 3 -302 7 -1081 10
                    -1730 3 -649 7 -1227 10 -1285 2 -58 7 -559 10 -1115 l6 -1010 30 -28 c32 -29
                    54 -33 93 -15 59 26 57 3 51 661 -13 1281 -24 2774 -24 3501 -1 418 -3 875 -6
                    1015 -6 353 -15 1349 -16 1923 -1 319 -6 492 -13 522 -21 82 -67 107 -120 65z"/>
                    <path d="M7255 8390 c-25 -12 -84 -66 -155 -141 -264 -280 -837 -846 -988
                    -974 -19 -16 -65 -58 -102 -92 -37 -35 -94 -84 -127 -110 -32 -27 -88 -73
                    -124 -104 -61 -54 -242 -197 -289 -229 -13 -8 -30 -22 -39 -30 -9 -9 -34 -28
                    -56 -43 -22 -16 -71 -51 -110 -78 -63 -45 -276 -187 -411 -275 -27 -18 -71
                    -44 -96 -57 -26 -14 -68 -39 -93 -56 -25 -17 -49 -31 -53 -31 -4 0 -31 -16
                    -61 -35 -29 -19 -57 -35 -61 -35 -5 0 -24 -10 -43 -23 -18 -12 -123 -67 -233
                    -121 -109 -54 -206 -102 -214 -107 -56 -32 -114 -59 -130 -59 -9 0 -23 -6 -29
                    -14 -7 -8 -25 -18 -41 -21 -16 -3 -34 -13 -41 -21 -6 -8 -19 -14 -29 -14 -10
                    0 -23 -6 -29 -14 -6 -7 -29 -16 -50 -20 -21 -3 -44 -13 -51 -21 -7 -8 -19 -15
                    -26 -15 -7 0 -47 -16 -88 -35 -41 -19 -84 -35 -94 -35 -11 0 -25 -7 -32 -15
                    -7 -8 -19 -15 -26 -15 -8 0 -31 -9 -51 -20 -21 -11 -43 -20 -50 -20 -6 0 -24
                    -7 -40 -15 -15 -8 -59 -26 -98 -41 -38 -14 -74 -30 -80 -35 -5 -5 -16 -9 -25
                    -9 -8 -1 -33 -9 -55 -20 -22 -11 -47 -20 -55 -20 -8 0 -24 -7 -34 -15 -11 -8
                    -28 -15 -38 -15 -10 0 -35 -9 -55 -20 -21 -11 -43 -20 -50 -20 -6 0 -24 -6
                    -40 -14 -60 -29 -137 -59 -208 -81 -38 -11 -81 -28 -152 -61 -17 -8 -37 -14
                    -45 -14 -8 0 -31 -9 -53 -20 -22 -11 -46 -20 -55 -20 -8 0 -24 -7 -34 -15 -11
                    -8 -28 -15 -39 -15 -10 0 -31 -6 -45 -14 -15 -7 -54 -23 -87 -35 -33 -12 -73
                    -28 -88 -36 -16 -8 -38 -15 -50 -15 -12 0 -35 -9 -52 -20 -16 -11 -39 -20 -50
                    -20 -11 0 -29 -7 -39 -15 -11 -8 -30 -15 -42 -15 -12 0 -27 -6 -33 -14 -6 -8
                    -31 -19 -56 -25 -24 -6 -47 -15 -50 -21 -3 -5 -15 -10 -26 -10 -11 0 -49 -16
                    -85 -35 -35 -19 -71 -35 -79 -35 -19 0 -161 -76 -210 -113 -22 -17 -57 -48
                    -78 -69 -32 -34 -37 -45 -37 -87 0 -38 7 -57 30 -90 17 -23 35 -53 40 -67 7
                    -18 17 -24 40 -24 17 0 41 -5 53 -12 48 -26 240 -57 390 -62 62 -3 132 -9 157
                    -14 71 -15 987 -25 1564 -17 l522 8 23 39 c28 50 22 76 -24 106 l-35 22 -922
                    1 c-508 0 -972 4 -1033 9 -60 4 -184 13 -275 19 -91 6 -185 18 -209 26 -25 8
                    -54 15 -66 15 -48 0 -63 55 -17 66 15 4 32 11 37 18 6 6 33 22 60 35 28 13 57
                    28 65 32 37 20 104 49 114 49 6 0 25 9 41 20 17 11 38 20 48 20 9 0 34 9 54
                    20 21 11 45 20 54 20 9 0 22 7 29 15 7 8 21 15 32 15 11 0 32 6 46 14 15 7 43
                    19 62 26 19 6 58 21 85 32 28 11 66 24 85 30 19 6 44 17 55 24 11 8 29 14 40
                    14 12 0 26 5 33 12 7 7 31 17 55 24 68 19 128 42 212 80 17 7 44 16 60 20 17
                    4 39 13 50 20 11 8 26 14 35 14 8 1 33 9 55 20 22 11 47 20 55 20 8 0 24 7 34
                    15 11 8 30 15 43 15 13 0 41 9 61 20 20 10 58 29 84 40 27 12 50 26 54 31 3 5
                    19 9 36 9 16 0 44 6 61 14 18 8 61 27 97 41 36 14 79 33 97 41 17 8 38 14 46
                    14 8 0 20 7 27 15 7 8 21 15 31 15 11 0 36 9 56 20 21 11 43 20 49 20 7 0 38
                    13 70 29 33 16 70 32 84 36 14 4 32 13 40 20 8 7 29 15 45 19 37 9 113 44 121
                    57 3 5 13 9 22 9 9 1 35 9 57 20 22 11 44 19 48 20 4 0 13 5 20 10 20 17 169
                    90 183 90 15 0 201 94 223 114 14 11 40 24 121 60 8 4 33 18 55 31 22 13 65
                    37 95 52 30 15 73 40 94 55 21 16 45 28 53 28 7 0 21 9 30 20 10 11 22 20 28
                    20 5 0 32 16 59 35 27 19 53 35 58 35 5 0 30 16 55 35 25 19 52 35 59 35 7 0
                    17 6 21 13 4 8 28 26 53 41 25 15 79 51 120 82 41 30 86 60 100 67 13 6 35 22
                    47 33 13 12 42 34 65 50 142 97 659 518 723 590 6 6 53 49 105 95 272 240
                    1020 999 1052 1067 27 58 23 87 -16 111 -18 12 -35 21 -37 20 -2 0 -22 -9 -44
                    -19z"/>
                    <path d="M15568 5685 c-20 -12 -28 -25 -33 -57 -7 -48 12 -2085 25 -2613 4
                    -187 8 -637 9 -1000 l1 -660 25 -37 c31 -45 55 -54 94 -33 64 33 61 -34 51
                    1015 -5 525 -12 989 -15 1030 -3 41 -10 569 -15 1174 -6 769 -11 1101 -19
                    1109 -6 6 -11 21 -11 33 0 49 -57 69 -112 39z"/>
                    <path d="M7150 5241 c-25 -15 -65 -50 -89 -77 -24 -27 -110 -119 -191 -204
                    -81 -85 -180 -190 -220 -232 -40 -43 -79 -78 -86 -78 -7 0 -20 -13 -28 -29 -8
                    -15 -32 -43 -53 -61 -21 -18 -90 -82 -153 -141 -148 -139 -157 -147 -216 -194
                    -27 -22 -67 -56 -89 -76 -95 -87 -510 -399 -530 -399 -3 0 -25 -16 -51 -35
                    -25 -19 -52 -35 -60 -35 -8 0 -17 -7 -20 -15 -3 -8 -15 -17 -26 -21 -11 -3
                    -48 -26 -82 -50 -35 -24 -74 -48 -89 -53 -14 -6 -45 -22 -69 -37 -61 -40 -129
                    -77 -243 -135 -55 -27 -107 -54 -115 -59 -8 -5 -40 -21 -70 -35 -30 -14 -62
                    -29 -70 -34 -8 -4 -37 -18 -65 -31 -27 -13 -57 -27 -65 -32 -8 -4 -22 -11 -30
                    -14 -8 -3 -35 -15 -60 -26 -25 -11 -61 -27 -80 -35 -19 -9 -48 -22 -63 -29
                    -16 -8 -36 -14 -45 -14 -9 0 -30 -9 -47 -20 -16 -11 -40 -20 -51 -20 -12 0
                    -27 -7 -34 -15 -7 -8 -25 -15 -40 -15 -15 0 -33 -6 -39 -14 -6 -8 -31 -19 -56
                    -25 -24 -6 -47 -15 -50 -21 -3 -5 -16 -10 -28 -10 -12 0 -39 -9 -60 -20 -20
                    -11 -45 -20 -55 -20 -10 0 -22 -4 -27 -9 -12 -11 -156 -61 -177 -61 -9 0 -21
                    -7 -28 -15 -7 -8 -22 -15 -34 -15 -11 -1 -39 -9 -61 -20 -22 -11 -49 -20 -60
                    -20 -11 0 -29 -7 -39 -15 -11 -8 -34 -15 -52 -15 -17 0 -37 -6 -43 -14 -7 -8
                    -31 -18 -54 -21 -23 -4 -51 -14 -62 -21 -11 -8 -34 -14 -51 -14 -17 0 -37 -7
                    -44 -15 -7 -8 -24 -15 -39 -15 -14 0 -43 -9 -64 -20 -20 -11 -46 -20 -58 -20
                    -12 0 -35 -6 -52 -13 -57 -24 -162 -57 -180 -57 -11 0 -31 -6 -45 -14 -15 -7
                    -61 -23 -102 -36 -41 -12 -90 -29 -108 -36 -18 -8 -44 -14 -57 -14 -14 0 -42
                    -9 -62 -20 -21 -11 -49 -20 -63 -20 -15 0 -35 -7 -46 -15 -10 -8 -31 -15 -45
                    -15 -15 0 -46 -9 -70 -20 -24 -11 -55 -20 -69 -20 -14 0 -34 -7 -44 -15 -11
                    -8 -31 -15 -46 -15 -14 0 -34 -6 -45 -14 -11 -7 -40 -17 -65 -21 -25 -4 -54
                    -14 -65 -21 -11 -8 -32 -14 -47 -14 -16 0 -45 -9 -65 -20 -21 -11 -47 -20 -58
                    -20 -11 -1 -31 -7 -45 -15 -14 -8 -36 -15 -50 -15 -14 0 -34 -7 -44 -15 -11
                    -8 -29 -15 -40 -15 -12 0 -34 -7 -51 -16 -33 -17 -91 -40 -145 -56 -19 -5 -41
                    -15 -49 -21 -17 -14 -48 -32 -87 -50 -70 -33 -121 -124 -79 -141 8 -3 15 -18
                    15 -33 0 -35 47 -103 72 -103 10 0 29 -6 41 -14 13 -8 66 -17 127 -21 58 -4
                    128 -13 155 -21 40 -10 188 -12 735 -8 377 2 710 6 740 8 30 3 219 9 420 16
                    253 8 369 15 379 23 8 7 22 25 32 41 20 33 12 66 -24 98 -21 18 -34 19 -282
                    14 -143 -3 -359 -10 -480 -16 -121 -6 -499 -12 -840 -12 -542 -1 -631 1 -704
                    15 -46 9 -98 17 -117 17 -18 0 -36 4 -39 10 -8 13 111 66 203 90 18 4 38 13
                    45 19 7 5 32 13 55 17 23 3 47 13 53 20 6 8 23 14 38 14 15 0 35 6 46 14 11 7
                    40 17 65 21 25 4 54 14 65 21 11 8 32 14 47 14 16 0 45 9 65 20 21 11 44 20
                    53 20 8 0 32 6 55 14 22 7 74 24 115 36 41 12 91 27 110 34 19 8 62 21 95 31
                    33 9 83 25 110 36 28 10 62 19 75 19 14 0 35 6 46 14 11 8 37 18 59 22 21 4
                    50 13 64 20 14 8 35 14 46 14 11 1 31 7 45 15 14 8 37 14 52 15 14 0 39 7 55
                    14 34 18 114 44 165 55 21 5 43 13 50 18 7 6 31 14 52 18 22 3 49 13 60 21 11
                    8 31 14 44 14 13 0 36 6 50 14 33 18 116 46 157 53 17 3 36 11 44 17 8 6 32
                    16 55 22 23 7 57 17 76 24 19 7 60 22 90 33 30 11 67 26 82 33 14 8 35 14 45
                    14 11 0 28 7 39 15 10 8 30 15 44 15 14 0 39 9 55 20 17 11 39 20 51 20 11 0
                    29 7 40 15 10 8 28 15 39 15 11 0 34 9 50 20 17 11 40 20 51 20 12 0 27 7 34
                    15 7 8 24 15 37 15 14 0 36 9 50 20 14 11 32 20 40 20 15 0 29 6 110 48 23 12
                    51 22 61 22 11 0 25 7 32 15 7 8 19 15 28 15 8 0 23 6 31 13 9 7 41 23 71 36
                    30 13 87 38 125 57 39 19 74 34 77 34 3 0 30 16 59 35 30 19 59 35 65 35 6 0
                    17 7 24 15 7 8 21 15 31 15 9 0 24 6 31 13 7 6 35 23 63 37 27 14 71 40 99 58
                    28 17 54 32 58 32 4 0 35 19 68 43 34 23 66 45 73 48 32 16 136 81 151 94 6 6
                    29 22 51 35 22 13 61 40 87 60 26 19 79 58 118 85 73 51 102 74 325 258 198
                    164 277 237 575 537 244 244 387 394 503 526 62 70 71 136 24 169 -30 21 -45
                    19 -97 -14z"/>
                    <path d="M9457 1466 c-48 -26 -57 -42 -48 -86 5 -24 15 -39 33 -48 44 -21
                    1005 -31 3533 -38 l2320 -6 33 32 c43 42 42 71 -7 109 l-39 31 -998 0 c-891 0
                    -3274 13 -4379 23 -402 4 -411 4 -448 -17z"/>
                    </g>
                    </svg>